/* XPM */
static char * arrow_xpm[] = {
"64 64 16 1",
" 	c None",
".	c #1D1D1D",
"+	c #1E1E1E",
"@	c #1C1C1C",
"#	c #1F1F1F",
"$	c #000000",
"%	c #0A0A0A",
"&	c #040404",
"*	c #060606",
"=	c #050505",
"-	c #010101",
";	c #0B0B0B",
">	c #030303",
",	c #090909",
"'	c #070707",
")	c #020202",
"                                                                ",
"                                                                ",
"                                                                ",
"                                                                ",
"                                                                ",
"                                                                ",
"                                                                ",
"                                                                ",
"                                                                ",
"                                                                ",
"                                                                ",
"                                                                ",
"                                                                ",
"                                                                ",
"                                 ...                            ",
"                                 ....                           ",
"                                 .....                          ",
"                                 .......                        ",
"                                 ........                       ",
"                                 .........                      ",
"                                 ...........                    ",
"                                 ............                   ",
"                                 .............                  ",
"                                  .............                 ",
"      ...........................................               ",
"      ............................................              ",
"      .............................................             ",
"      ...............................................           ",
"      ...............................................+          ",
"      .................................................         ",
"      ...................................................       ",
"      ...................................................@      ",
"      .....................................................     ",
"      ######################################################+   ",
"      $$$$$$$$$$$$$$$$$$$$$$$$$$$$$$$$$$$$$$$$$$$$$$$$$$$$$$%   ",
"      $$$$$$$$$$$$$$$$$$$$$$$$$$$$$$$$$$$$$$$$$$$$$$$$$$$$$     ",
"      $$$$$$$$$$$$$$$$$$$$$$$$$$$$$$$$$$$$$$$$$$$$$$$$$$$&      ",
"      $$$$$$$$$$$$$$$$$$$$$$$$$$$$$$$$$$$$$$$$$$$$$$$$$$*       ",
"      $$$$$$$$$$$$$$$$$$$$$$$$$$$$$$$$$$$$$$$$$$$$$$$$$         ",
"      $$$$$$$$$$$$$$$$$$$$$$$$$$$$$$$$$$$$$$$$$$$$$$$$          ",
"      $$$$$$$$$$$$$$$$$$$$$$$$$$$$$$$$$$$$$$$$$$$$$$=           ",
"      $$$$$$$$$$$$$$$$$$$$$$$$$$$$$$$$$$$$$$$$$$$$$             ",
"      $$$$$$$$$$$$$$$$$$$$$$$$$$$$$$$$$$$$$$$$$$$$              ",
"      $$$$$$$$$$$$$$$$$$$$$$$$$$$$$$$$$$$$$$$$$$&               ",
"                                 -$$$$$$$$$$$$$                 ",
"                                 ;$$$$$$$$$$$$                  ",
"                                 %$$$$$$$$$$>                   ",
"                                 %$$$$$$$$$,                    ",
"                                 %$$$$$$$$                      ",
"                                 %$$$$$$>                       ",
"                                 %$$$$$'                        ",
"                                 %$$$$                          ",
"                                 %$$)                           ",
"                                 %$=                            ",
"                                 >                              ",
"                                                                ",
"                                                                ",
"                                                                ",
"                                                                ",
"                                                                ",
"                                                                ",
"                                                                ",
"                                                                ",
"                                                                "};
