/* XPM */
static char * Untitled_xpm[] = {
   "128 128 11 1",
   " 	c None",
   ".	c #000300",
   "+	c #191514",
   "@	c #211CFF",
   "#	c #FF0000",
   "$	c #76319C",
   "%	c #BE3047",
   "&	c #8D6646",
   "*	c #738800",
   "=	c #71AB80",
   "-	c #0DFF00",
   "                             .#####.                                                                                            ",
   "                             .#####.                                                                                            ",
   "                             .#####.                                                                                            ",
   "                             .#####.                                                                                            ",
   "                             .#####.                                                                                          ..",
   "                             .#####.                                                                                       ...--",
   "                             .#####.                                                                                   ....-----",
   "                             .#####.                                                                                ...---------",
   "                             .#####.                                                                            ....------------",
   "                             .#####.                                                                         ...----------------",
   "                             .#####.                                                                     ....-------------------",
   "                             .#####.                                                                  ...-----------------------",
   "                             .#####.                                                              ....------------------------..",
   "                             .#####.                                                        ... ..------------------------....  ",
   "                         ####.#####.#                                                    ...---------------------------...      ",
   "                      #######.#####.####                                             ....--------------------------....         ",
   "                  ###########.#####.########                                      ...---------------------------...             ",
   "              ##################################                               ...--------------------------....                ",
   "            &%###################################%                         ....-------------------------....                    ",
   "            --**&#############################%%$@                      ...--------------------------...                        ",
   "            ------**%#####################%%$$@@@@                   ...-------------------------....                           ",
   "            ----------*&%#############%%$$@@@@@@@@               ....------------------------....                               ",
   "            -------------**&######%%$$@@@@@@@@@@@@            ...-------------------------...                                   ",
   "@           -----------------**%%$@@@@@@@@@@@@@@@@         ...------------------------....                                      ",
   "....@       -------------------=@@@@@@@@@@@@@@@@@@     ....-----------------------....                                          ",
   "@@@@....@   -------------------=@@@@@@@@@@@@@@@@@@  ...------------------------...                                              ",
   "@@@@@@@@...@-------------------=@@@@@@@@@@@@@@@@@@..-----------------------....                                                 ",
   "@@@@@@@@@@@@-------------------=@@@@@@@@@@@@@@@@@@----------------------...                                                     ",
   "@@@@@@@@@@@@-------------------=@@@@@@@@@@@@@@@@@@------------------....                                                        ",
   "@@@@@@@@@@@@-------------------=@@@@@@@@@@@@@@@@@@--------------....                                                            ",
   "@@@@@@@@@@@@-------------------=@@@@@@@@@@@@@@@@@@-----------...                                                                ",
   "...@@@@@@@@@-------------------=@@@@@@@@@@@@@@@@@@-------....                                                                   ",
   "   .....@@@@-------------------=@@@@@@@@@@...@@@@@---....                                                                       ",
   "        ...@-------------------=@@+@@@@@@@@@@....@-..                                                                           ",
   "            -------..----------=@@+..@@@@@@@@@@@@....                                                                           ",
   "            ---....------------=@@@+..@@@@@@@@@@@@@@ ....                                                                       ",
   "            ...----------------=@@@+....@@@@@@@@@@@@@@@@ ....                                                                   ",
   "        ....-------------------=@@@@......@@@@@@@@@@@@@@@@@@@....                                                               ",
   "    -...-----------------------=@@@@+.......@@@@@@@@@@@@@@@@@@@@@....                                                           ",
   " ....--------------------------=@@@@+........@@@@@@@@@@@@@@@@@@@@@@@@....                                                       ",
   ".------------------------------=@@@@@+.........@@@@@@@@@@@@@@@@@@@@@@@@@@.....                                                  ",
   "-------------------------------=@@@@@+...........@@@@@@@@@@@@@@@@@@@@@@@@@@@@@....                                              ",
   "------------------...----------=@@@@@+.............@@@@@@@@@@@@@@@@@@@@@@@@@@@@@@@....                                          ",
   "--------------....-------------=@@@@@@+................@@@@@@@@@@@@@@@@@@@@@@@@@@@@@@@....                                      ",
   "----------....-----------------=@@@@@@+............... ....@@@@@@@@@@@@@@@@@@@@@@@@@@@@@@@....                                  ",
   "-----.....  -------------------=@@@@@@@+................   ....@@@@@@@@@@@@@@@@@@@@@@@@@@@@@@@....                              ",
   "-....       -------------------=@@@@@@@+..................     ....@@@@@@@@@@@@@@@@@@@@@@@@@@@@@@@....                          ",
   ".           -------------------=@@@@@@@+....................       ....@@@@@@@@@@@@@@@@@@@@@@@@@@@@@@@.....                     ",
   "                ---------------=@@@@@@@@+....................          .....@@@@@@@@@@@@@@@@@@@@@@@@@@@@@@@....                 ",
   "                    -----------=@@@@@@@@+.......................            ....@@@@@@@@@@@@@@@@@@@@@@@@@@@@@@@....             ",
   "                       --------=@@@@@@@$+.........................              ....@@@@@@@@@@@@@@@@@@@@@@@@@@@@@@@....         ",
   "                           ----=@@..     +........................                  ....@@@@@@@@@@@@@@@@@@@@@@@@@@@@@@@....     ",
   "                            .#-*###.     +..........................                    ....@@@@@@@@@@@@@@@@@@@@@@@@@@@@@@@.... ",
   "                            .######.      +...........................                      ....@@@@@@@@@@@@@@@@@@@@@@@@@@@@@@@.",
   "                            .######.      +..............................                       .....@@@@@@@@@@@@@@@@@@@@@@@@@@@",
   "                            .######.      +..............................                            ....@@@@@@@@@@@@@@@@@@@@@@@",
   "                            .######.       +................................                             ....@@@@@@@@@@@@@@@@@@@",
   "                            .######.       +.................................                                ....@@@@@@@@@@@@@@@",
   "                            .######.       +....................................                                 ....@@@@@@@@@@@",
   "                            .######.        +...................................                                     ....@@@@@@@",
   "                            .######.        +......................................                                      ....@@@",
   "                            .######.         +.......................................                                        ...",
   "                            .######.         +.........................................                                        .",
   "                            .######.         +..........................................                                        ",
   "                            .######.          +...........................................                                      ",
   "                            .######.          +.............................................                                    ",
   "                            .######.          +...............................................                                  ",
   "                            .######.           +...............................................                                 ",
   "                            .######.           +..............................................                                  ",
   "                            .######.            +...........................................                                    ",
   "                            .######.            +.....................................+++                                       ",
   "                            .######.            +...................................                                            ",
   "                            .######.             +...............................                                               ",
   "                            .######.             +..........................++                                                  ",
   "                            .######.              +........................+                                                    ",
   "                            .######.              +........................+&                                                   ",
   "                            .######.              +.........................+                                                   ",
   "                            .######.               +.........................                                                   ",
   "                            .######.               +..........................                                                  ",
   "                            .######.               +...........................                                                 ",
   "                            .######.                +...............+&+.........+                                               ",
   "                            .######.                +...............   ..........                                               ",
   "                            .######.                 +.............     +........                                               ",
   "                            .######.                 +.............      ..........                                             ",
   "                            .######.                 +............        .........+                                            ",
   "                            .######.                  +...........        +..........                                           ",
   "                            .######.                  +...........         ..........                                           ",
   "                            .######.                  +..........            .........                                          ",
   "                            .######.                   +.........            ..........+                                        ",
   "                            .######.                   +........              ..........                                        ",
   "                            .######.                    +.......               ..........                                       ",
   "                            .######.                    +......                ...........                                      ",
   "                            .######.                    +......                  ..........+                                    ",
   "                            .######.                     +....                   ...........                                    ",
   "                            .######.                     +....                    ..........                                    ",
   "                            .######.                     +....                     ...........                                  ",
   "                            .######.                      +..                        .........+                                 ",
   "                            .######.                      +..                        ...........                                ",
   "                            .######.                       +                          ..........                                ",
   "                            .######.                       +                           ..........                               ",
   "                            .######.                                                   ..........                               ",
   "                            .######.                                                     ......                                 ",
   "                            .######.                                                     +.....                                 ",
   "                            .######.                                                      ...+                                  ",
   "                            .######.                                                       .                                    ",
   "                            .######.                                                                                            ",
   "                            .######.                                                                                            ",
   "                            .######.                                                                                            ",
   "                            .######.                                                                                            ",
   "                            .######.                                                                                            ",
   "                            .######.                                                                                            ",
   "                            .######.                                                                                            ",
   "                            .######.                                                                                            ",
   "                            .######.                                                                                            ",
   "                            .######.                                                                                            ",
   "                            .######.                                                                                            ",
   "                            .######.                                                                                            ",
   "                            .######.                                                                                            ",
   "                            .######.                                                                                            ",
   "                            .######.                                                                                            ",
   "                            .######.                                                                                            ",
   "                            .######.                                                                                            ",
   "                            .######.                                                                                            ",
   "                            .######.                                                                                            ",
   "                            .######.                                                                                            ",
   "                            .######.                                                                                            ",
   "                            .######.                                                                                            ",
   "                            .######.                                                                                            "};

