/* XPM */
static char * file_xpm[] = {
"128 128 2 1",
" 	g None",
".	g #000000",
"                                                                                                                                ",
"                                                                                                                                ",
"                                                                                                                                ",
"                                                                                                                                ",
"                                                                                                                                ",
"                                                                                                                                ",
"                                                                                                                                ",
"                     .........................................................                                                  ",
"                  .............................................................                                                 ",
"                 ...............................................................                                                ",
"                .................................................................                                               ",
"               ...................................................................                                              ",
"               ....................................................................                                             ",
"              ......................................................................                                            ",
"              .......................................................................                                           ",
"              ........................................................................                                          ",
"              ................................................................ ........                                         ",
"              ................................................................  ........                                        ",
"              ................................................................   ........                                       ",
"              ................................................................    ........                                      ",
"              ................................................................     ........                                     ",
"              ................................................................      ........                                    ",
"              ................................................................       ........                                   ",
"              ................................................................        ........                                  ",
"              ................................................................         ........                                 ",
"              ................................................................          ........                                ",
"              ................................................................           ........                               ",
"              ................................................................            ........                              ",
"              ................................................................             ........                             ",
"              ................................................................              ........                            ",
"              ................................................................               ........                           ",
"              ................................................................                ........                          ",
"              ................................................................                 ........                         ",
"              ................................................................                  ........                        ",
"              ................................................................                   ........                       ",
"              ................................................................                    ........                      ",
"              .................................................................                    ........                     ",
"              ..................................................................                    ........                    ",
"              ...................................................................                    ........                   ",
"              ..................................................................... ..........................                  ",
"              ................................................................................................                  ",
"              ................................................................................................                  ",
"              ................................................................................................                  ",
"              ................................................................................................                  ",
"              ................................................................................................                  ",
"              ................................................................................................                  ",
"              ................................................................................................                  ",
"              ................ .............................................................. ................                  ",
"              ................                                                                ................                  ",
"              ................                                                                ................                  ",
"              ................                                                                ................                  ",
"              ................                                                                ................                  ",
"              ................                                                                ................                  ",
"              ................                                                                ................                  ",
"              ................                                                                ................                  ",
"              ................ .............................................................. ................                  ",
"              ................................................................................................                  ",
"              ................................................................................................                  ",
"              ................................................................................................                  ",
"              ................................................................................................                  ",
"              ................................................................................................                  ",
"              ................................................................................................                  ",
"              ................................................................................................                  ",
"              ................ .............................................................. ................                  ",
"              ................                                                                ................                  ",
"              ................                                                                ................                  ",
"              ................                                                                ................                  ",
"              ................                                                                ................                  ",
"              ................                                                                ................                  ",
"              ................                                                                ................                  ",
"              ................                                                                ................                  ",
"              ................ .............................................................. ................                  ",
"              ................................................................................................                  ",
"              ................................................................................................                  ",
"              ................................................................................................                  ",
"              ................................................................................................                  ",
"              ................................................................................................                  ",
"              ................................................................................................                  ",
"              ................................................................................................                  ",
"              ................ .............................................................. ................                  ",
"              ................                                                                ................                  ",
"              ................                                                                ................                  ",
"              ................                                                                ................                  ",
"              ................                                                                ................                  ",
"              ................                                                                ................                  ",
"              ................                                                                ................                  ",
"              ................                                                                ................                  ",
"              ................ .............................................................. ................                  ",
"              ................................................................................................                  ",
"              ................................................................................................                  ",
"              ................................................................................................                  ",
"              ................................................................................................                  ",
"              ................................................................................................                  ",
"              ................................................................................................                  ",
"              ................................................................................................                  ",
"              ................ .............................................................. ................                  ",
"              ................                                                                ................                  ",
"              ................                                                                ................                  ",
"              ................                                                                ................                  ",
"              ................                                                                ................                  ",
"              ................                                                                ................                  ",
"              ................                                                                ................                  ",
"              ................                                                                ................                  ",
"              ................ .............................................................. ................                  ",
"              ................................................................................................                  ",
"              ................................................................................................                  ",
"              ................................................................................................                  ",
"              ................................................................................................                  ",
"              ................................................................................................                  ",
"              ................................................................................................                  ",
"              ................................................................................................                  ",
"              ................................................................................................                  ",
"              ................................................................................................                  ",
"              ................................................................................................                  ",
"               ..............................................................................................                   ",
"               ..............................................................................................                   ",
"                ............................................................................................                    ",
"                 ..........................................................................................                     ",
"                  ........................................................................................                      ",
"                     ..................................................................................                         ",
"                                                                                                                                ",
"                                                                                                                                ",
"                                                                                                                                ",
"                                                                                                                                ",
"                                                                                                                                ",
"                                                                                                                                ",
"                                                                                                                                ",
"                                                                                                                                "};
