/* XPM */
static char * folder_xpm[] = {
"128 128 4 1",
" 	c None",
".	c #000200",
"+	c #000000",
"@	c #010300",
"                                                                                                                                ",
"                                                                                                                                ",
"                                                                                                                                ",
"                                                                                                                                ",
"                                                                                                                                ",
"                                                                                                                                ",
"                                                                                                                                ",
"                                                                                                                                ",
"                                                                                                                                ",
"                                                                                                                                ",
"                                                                                                                                ",
"  ...........................................                                                                                   ",
" .............................................                                                                                  ",
" ..............................................                                                                                 ",
"...............................................                                                                                 ",
"................................................                                                                                ",
"................................................                                                                                ",
"................................................                                                                                ",
"..........................................................................................................                      ",
"............................................................................................................                    ",
".............................................................................................................                   ",
"..............................................................................................................                  ",
"..............................................................................................................                  ",
"..............................................................................................................                  ",
"..............................................................................................................                  ",
"..............................................................................................................                  ",
"..................                                                                                                              ",
"................                                                                                                                ",
"...............                                                                                                                 ",
"..............                                                                                                                  ",
"..............       .......................................................................................................    ",
"..............      .........................................................................................................   ",
".............      ...........................................................................................................  ",
".............     ............................................................................................................. ",
".............     ............................................................................................................. ",
"............     .............................................................................................+++++++.......... ",
"............     ...........................................................................................+++++++++++........ ",
"............     ..........................................................................................+++++++++++++......  ",
"............     .........................................................................................+++++++++++++++.....  ",
"...........     @........................................................................................+++++++++++++++++....  ",
"...........     .........................................................................................+++++++++++++++++....  ",
"...........     ........................................................................................+++++++++++++++++++..   ",
"..........     .........................................................................................+++++++++++++++++++..   ",
"..........     ........................................................................................++++++++++++++++++++..   ",
"..........     ........................................................................................++++++++++++++++++++.    ",
"..........     .............................................................................+++++++....++++++++++++++++++++.    ",
".........     @...........................................................................+++++++++++.+++++++++++++++++++++.    ",
".........     ...........................................................................++++++++++++++++++++++++++++++++++.    ",
".........     ..........................................................................++++++++++++++++++++++++++++++++++.     ",
"........     ..................................................................+++++++++++++++++++++++++++++++++++++++++++.     ",
"........     .............................................................++++++++++++++++++++++++++++++++++++++++++++++++.     ",
"........     .........................................................++++++++++++++++++++++++++++++++++++++++++++++++++++.     ",
"........     .......................................................+++++++++++++++++++++++++++++++++++++++++++++++++++++.      ",
".......     @......................................................++++++++++++++++++++++++++++++++++++++++++++++++++++++.      ",
".......     ......................................................++++++++++++++++++++++++++++++++++++++++++++++++++++++..      ",
".......     .....................................................+++++++++++++++++++++++++++++++++++++++++++++++++++++++.       ",
"......     .....................................................++++++++++++++++++++++++++++++++++++++++++++++++++++++++.       ",
"......     ....................................................+++++++++++++++++++++++++++++++++++++++++++++++++++++++++.       ",
"......     ....................................................+++++++++++++++++++++++++++++++++++++++++++++++++++++++++.       ",
".....@     ...................................................++++++++++++++++++++++++++++++++++++++++++++++++++++++++++        ",
".....     @...................................................++++++++++++++++++++++++++++++++++++++++++++++++++++++++++        ",
".....     ....................................................++++++++++++++++++++++++++++++++++++++++++++++++++++++++++        ",
".....     ....................................................+++++++++++++++++++++++++++++++++++++++++++++++++++++++++         ",
"....     .....................................................+++++++++++++++++++++++++++++++++++++++++++++++++++++++++         ",
"....     .....................................................+++++++++++++++++++++++++++++++++++++++++++++++++++++++++         ",
"....     .....................................................+++++++++++++++++++++++++++++++++++++++++++++++++++++++++         ",
"...@     .....................................................++++++++++++++++++++++++++++++++++++++++++++++++++++++++          ",
"...     @....................................................+++++++++++++++++++++++++++++++++++++++++++++++++++++++++          ",
"...     .....................................................++++++++++++++++++++++++++++++++++++++++++++++++++++++++           ",
"...     .....................................................++++++++++++++++++++++++++++++++++++++++++++++++++++++++           ",
"..     ......................................................++++++++++++++++++++++++++++++++++++++++++++++++++++++++           ",
"..     ......................................................++++++++++++++++++++++++++++++++++++++++++++++++++++++++           ",
"..     ......................................................+++++++++++++++++++++++++++++++++++++++++++++++++++++++            ",
"..     ......................................................+++++++++++++++++++++++++++++++++++++++++++++++++++++++            ",
".     @......................................................++++++++++++++++++++++++++++++++++++++++++++++++++++++             ",
".     .......................................................++++++++++++++++++++++++++++++++++++++++++++++++++++++             ",
"      .......................................................++++++++++++++++++++++++++++++++++++++++++++++++++++++             ",
"     ........................................................+++++++++++++++++++++++++++++++++++++++++++++++++++++              ",
"     .........................................................++++++++++++++++++++++++++++++++++++++++++++++++++++              ",
"     .........................................................+++++++++++++++++++++++++++++++++++++++++++++++++++               ",
"     ..........................................................++++++++++++++++++++++++++++++++++++++++++++++++++               ",
"    @.........................................................+++++++++++++++++++++++++++++++++++++++++++++++++++               ",
"    ........................................................+++++++++++++++++++++++++++++++++++++++++++++++++++++               ",
"    .......................................................+++++++++++++++++++++++++++++++++++++++++++++++++++++                ",
"   .......................................................++++++++++++++++++++++++++++++++++++++++++++++++++++++                ",
"   ......................................................+++++++++++++++++++++++++++++++++++++++++++++++++++++++                ",
"   ......................................................+++++++++++++++++++++++++++++++++++++++++++++++++++++++                ",
"   .....................................................+++++++++++++++++++++++++++++++++++++++++++++++++++++++                 ",
"  @.....................................................+++++++++++++++++++++++++++++++++++++++++++++++++++++++                 ",
"  ......................................................++++++++++++++++++++++++++++++++++++++++++++++++++++++                  ",
"  ......................................................++++++++++++++++++++++++++++++++++++++++++++++++++++++                  ",
" .......................................................++++++++++++++++++++++++++++++++++++++++++++++++++++++                  ",
" .......................................................+++++++++++++++++++++++++++++++++++++++++++++++++++++                   ",
" .......................................................+++++++++++++++++++++++++++++++++++++++++++++++++++++                   ",
" ........................................................+++++++++++++++++++++++++++++++++++++++++++++++++++                    ",
".........................................................+++++++++++++++++++++++++++++++++++++++++++++++++++                    ",
"..........................................................+++++++++++++++++++++++++++++++++++++++++++++++++                     ",
" ..........................................................+++++++++++++++++++++++++++++++++++++++++++++++                      ",
" ...........................................................+++++++++++++++++++++++++++++++++++++++++++++                       ",
"  ............................................................+++++++++++++++++++++++++++++++++++++++++                         ",
"                                                                                                                                ",
"                                                                                                                                ",
"                                                                                                                                ",
"                                                                                                                                ",
"                                                                                                                                ",
"                                                                                                                                ",
"                                                                                                                                ",
"                                                                                                                                ",
"                                                                                                                                ",
"                                                                                                                                ",
"                                                                                                                                ",
"                                                                                                                                ",
"                                                                                                                                ",
"                                                                                                                                ",
"                                                                                                                                ",
"                                                                                                                                ",
"                                                                                                                                ",
"                                                                                                                                ",
"                                                                                                                                ",
"                                                                                                                                ",
"                                                                                                                                ",
"                                                                                                                                ",
"                                                                                                                                ",
"                                                                                                                                ",
"                                                                                                                                ",
"                                                                                                                                ",
"                                                                                                                                ",
"                                                                                                                                "};
