/* XPM */
static char * Untitled_xpm[] = {
   "128 128 43 1",
   " 	c None",
   ".	c #1E1EFF",
   "+	c #2D1BE8",
   "@	c #241CF6",
   "#	c #1F1DFC",
   "$	c #CD0000",
   "%	c #CA0004",
   "&	c #6D108B",
   "*	c #4716C3",
   "=	c #C2010E",
   "-	c #B8031D",
   ";	c #281CEF",
   ">	c #910A56",
   ",	c #A90633",
   "'	c #700F87",
   ")	c #4916C0",
   "!	c #C3010E",
   "~	c #B9031C",
   "{	c #940953",
   "]	c #AB0531",
   "^	c #4517C5",
   "/	c #2F1BE5",
   "(	c #211DF9",
   "_	c #641198",
   ":	c #3719D9",
   "<	c #281CF0",
   "[	c #201DFB",
   "}	c #1E1DFD",
   "|	c #C70007",
   "1	c #5614AC",
   "2	c #BB0219",
   "3	c #AB0530",
   "4	c #231DF6",
   "5	c #790E79",
   "6	c #96094F",
   "7	c #C90005",
   "8	c #641299",
   "9	c #4018CC",
   "0	c #C00212",
   "a	c #B40423",
   "b	c #261CF2",
   "c	c #880B63",
   "d	c #A2073D",
   "                                                                                                                                ",
   "                                                                                                                                ",
   "                                                                                                                                ",
   "                                                                                                                                ",
   "                                                                                                                                ",
   "                                                                                                                                ",
   "                                                                                                                                ",
   "                                                                                                                                ",
   "                                                                                                                                ",
   "                                                                                                                                ",
   "                                                                                                                                ",
   "                                                                                                                                ",
   "                              .......          .......         ........         ........         ........                       ",
   "                             .........        .........        ........         ........         ........                       ",
   "                             .........        .........        ........         ........         ........                       ",
   "                             .........        .........        ........         ........         ........                       ",
   "                             .........        .........        ........         ........         ........                       ",
   "                             .........        .........        ........         ........         ........                       ",
   "                             .........        .........        ........         ........         ........                       ",
   "                             .........        .........        ........         ........         ........                       ",
   "                             .........        .........        ........         ........         ........                       ",
   "                             .........        .........        ........         ........         ........                       ",
   "                             +.......@        @.......+        #.......         ........         .......#                       ",
   "            $$$$$$$$$$$$$$$$%&.......*=$$$$$$=*.......&%$$$$$$-;.......>$$$$$$$,........,$$$$$$$>.......;-$$$$$$$$$$            ",
   "            $$$$$$$$$$$$$$$$%'.......)!$$$$$$!).......'%$$$$$$~;.......{$$$$$$$]........]$$$$$$${.......;~$$$$$$$$$$            ",
   "            $$$$$$$$$$$$$$$$%'.......)!$$$$$$!).......'%$$$$$$~;.......{$$$$$$$]........]$$$$$$${.......;~$$$$$$$$$$            ",
   "            $$$$$$$$$$$$$$$$%'.......)!$$$$$$!).......'%$$$$$$~;.......{$$$$$$$]........]$$$$$$${.......;~$$$$$$$$$$            ",
   "            $$$$$$$$$$$$$$$$%'.......)!$$$$$$!).......'%$$$$$$~;.......{$$$$$$$]........]$$$$$$${.......;~$$$$$$$$$$            ",
   "            $$$$$$$$$$$$$$$$%'.......)!$$$$$$!).......'%$$$$$$~;.......{$$$$$$$]........]$$$$$$${.......;~$$$$$$$$$$            ",
   "            $$$$$$$$$$$$$$$$%'.......)!$$$$$$!).......'%$$$$$$~;.......{$$$$$$$]........]$$$$$$${.......;~$$$$$$$$$$            ",
   "            $$$$$$$$$$$$$$$$%'.......)!$$$$$$!).......'%$$$$$$~;.......{$$$$$$$]........]$$$$$$${.......;~$$$$$$$$$$            ",
   "                             ^......./        /.......^        (......._        ........        _.......(                       ",
   "                             .........        .........        ........         ........         ........                       ",
   "                             .........        .........        ........         ........         ........                       ",
   "                             .........        .........        ........         ........         ........                       ",
   "                             .........        .........        ........         ........         ........                       ",
   "                             .........        .........        ........         ........         ........                       ",
   "                             .........        .........        ........         ........         ........                       ",
   "                             .........        .........        ........         ........         ........                       ",
   "                             :.......<        <.......:        [.......         ........         .......[                       ",
   "            $$$$$$$$$$$$$$$$%'.......)!$$$$$$!).......'%$$$$$$~;.......{$$$$$$$]........]$$$$$$${.......;~$$$$$$$$$$            ",
   "            $$$$$$$$$$$$$$$$%'.......)!$$$$$$!).......'%$$$$$$~;.......{$$$$$$$]........]$$$$$$${.......;~$$$$$$$$$$            ",
   "            $$$$$$$$$$$$$$$$%'.......)!$$$$$$!).......'%$$$$$$~;.......{$$$$$$$]........]$$$$$$${.......;~$$$$$$$$$$            ",
   "            $$$$$$$$$$$$$$$$%'.......)!$$$$$$!).......'%$$$$$$~;.......{$$$$$$$]........]$$$$$$${.......;~$$$$$$$$$$            ",
   "            $$$$$$$$$$$$$$$$%'.......)!$$$$$$!).......'%$$$$$$~;.......{$$$$$$$]........]$$$$$$${.......;~$$$$$$$$$$            ",
   "            $$$$$$$$$$$$$$$$%'.......)!$$$$$$!).......'%$$$$$$~;.......{$$$$$$$]........]$$$$$$${.......;~$$$$$$$$$$            ",
   "            $$$$$$$$$$$$$$$$%'.......)!$$$$$$!).......'%$$$$$$~;.......{$$$$$$$]........]$$$$$$${.......;~$$$$$$$$$$            ",
   "            $$$$$$$$$$$$$$$$%'.......)!$$$$$$!).......'%$$$$$$~;.......{$$$$$$$]........]$$$$$$${.......;~$$$$$$$$$$            ",
   "                             :.......<        <.......:        [.......         ........         .......[                       ",
   "                             .........        .........        ........         ........         ........                       ",
   "                             .........        .........        ........         ........         ........                       ",
   "                             .........        .........        ........         ........         ........                       ",
   "                             .........        .........        ........         ........         ........                       ",
   "                             .........        .........        ........         ........         ........                       ",
   "                             .........        .........        ........         ........         ........                       ",
   "                             .........        .........        ........         ........         ........                       ",
   "                             ^......./        /.......^        (......._        ........        _.......(                       ",
   "            $$$$$$$$$$$$$$$$%'.......)!$$$$$$!).......'%$$$$$$~;.......{$$$$$$$]........]$$$$$$${.......;~$$$$$$$$$$            ",
   "            $$$$$$$$$$$$$$$$%'.......)!$$$$$$!).......'%$$$$$$~;.......{$$$$$$$]........]$$$$$$${.......;~$$$$$$$$$$            ",
   "            $$$$$$$$$$$$$$$$%'.......)!$$$$$$!).......'%$$$$$$~;.......{$$$$$$$]........]$$$$$$${.......;~$$$$$$$$$$            ",
   "            $$$$$$$$$$$$$$$$%'.......)!$$$$$$!).......'%$$$$$$~;.......{$$$$$$$]........]$$$$$$${.......;~$$$$$$$$$$            ",
   "            $$$$$$$$$$$$$$$$%'.......)!$$$$$$!).......'%$$$$$$~;.......{$$$$$$$]........]$$$$$$${.......;~$$$$$$$$$$            ",
   "            $$$$$$$$$$$$$$$$%'.......)!$$$$$$!).......'%$$$$$$~;.......{$$$$$$$]........]$$$$$$${.......;~$$$$$$$$$$            ",
   "            $$$$$$$$$$$$$$$$%'.......)!$$$$$$!).......'%$$$$$$~;.......{$$$$$$$]........]$$$$$$${.......;~$$$$$$$$$$            ",
   "            $$$$$$$$$$$$$$$$%&.......*=$$$$$$=*.......&%$$$$$$-;.......>$$$$$$$,........,$$$$$$$>.......;-$$$$$$$$$$            ",
   "                             +.......@        @.......+        #.......         ........         .......#                       ",
   "                             .........        .........        ........         ........         ........                       ",
   "                             .........        .........        ........         ........         ........                       ",
   "                             .........        .........        ........         ........         ........                       ",
   "                             .........        .........        ........         ........         ........                       ",
   "                             .........        .........        ........         ........         ........                       ",
   "                             .........        .........        ........         ........         ........                       ",
   "                             [.......}        }.......[        ........         ........         ........                       ",
   "             $$$$$$$$$$$$$$$|1.......:2$$$$$$2:.......1|$$$$$$34.......5$$$$$$$6........6$$$$$$$5.......43$$$$$$$$$             ",
   "            $$$$$$$$$$$$$$$$%'.......)!$$$$$$!).......'%$$$$$$~;.......{$$$$$$$]........]$$$$$$${.......;~$$$$$$$$$$            ",
   "            $$$$$$$$$$$$$$$$%'.......)!$$$$$$!).......'%$$$$$$~;.......{$$$$$$$]........]$$$$$$${.......;~$$$$$$$$$$            ",
   "            $$$$$$$$$$$$$$$$%'.......)!$$$$$$!).......'%$$$$$$~;.......{$$$$$$$]........]$$$$$$${.......;~$$$$$$$$$$            ",
   "            $$$$$$$$$$$$$$$$%'.......)!$$$$$$!).......'%$$$$$$~;.......{$$$$$$$]........]$$$$$$${.......;~$$$$$$$$$$            ",
   "            $$$$$$$$$$$$$$$$%'.......)!$$$$$$!).......'%$$$$$$~;.......{$$$$$$$]........]$$$$$$${.......;~$$$$$$$$$$            ",
   "            $$$$$$$$$$$$$$$$%'.......)!$$$$$$!).......'%$$$$$$~;.......{$$$$$$$]........]$$$$$$${.......;~$$$$$$$$$$            ",
   "            $$$$$$$$$$$$$$$$%'.......)!$$$$$$!).......'%$$$$$$~;.......{$$$$$$$]........]$$$$$$${.......;~$$$$$$$$$$            ",
   "             $$$$$$$$$$$$$$$78.......90$$$$$$09.......87$$$$$$ab.......c$$$$$$$d........d$$$$$$$c.......ba$$$$$$$$$$            ",
   "                             b.......[        [.......b        }.......         ........         .......}                       ",
   "                             .........        .........        ........         ........         ........                       ",
   "                             .........        .........        ........         ........         ........                       ",
   "                             .........        .........        ........         ........         ........                       ",
   "                             .........        .........        ........         ........         ........                       ",
   "                             .........        .........        ........         ........         ........                       ",
   "                             .........        .........        ........         ........         ........                       ",
   "                             b.......[        [.......b        }.......         ........         .......}                       ",
   "             $$$$$$$$$$$$$$$78.......90$$$$$$09.......87$$$$$$ab.......c$$$$$$$d........d$$$$$$$c.......ba$$$$$$$$$$            ",
   "            $$$$$$$$$$$$$$$$%'.......)!$$$$$$!).......'%$$$$$$~;.......{$$$$$$$]........]$$$$$$${.......;~$$$$$$$$$$            ",
   "            $$$$$$$$$$$$$$$$%'.......)!$$$$$$!).......'%$$$$$$~;.......{$$$$$$$]........]$$$$$$${.......;~$$$$$$$$$$            ",
   "            $$$$$$$$$$$$$$$$%'.......)!$$$$$$!).......'%$$$$$$~;.......{$$$$$$$]........]$$$$$$${.......;~$$$$$$$$$$            ",
   "            $$$$$$$$$$$$$$$$%'.......)!$$$$$$!).......'%$$$$$$~;.......{$$$$$$$]........]$$$$$$${.......;~$$$$$$$$$$            ",
   "            $$$$$$$$$$$$$$$$%'.......)!$$$$$$!).......'%$$$$$$~;.......{$$$$$$$]........]$$$$$$${.......;~$$$$$$$$$$            ",
   "            $$$$$$$$$$$$$$$$%'.......)!$$$$$$!).......'%$$$$$$~;.......{$$$$$$$]........]$$$$$$${.......;~$$$$$$$$$$            ",
   "            $$$$$$$$$$$$$$$$%'.......)!$$$$$$!).......'%$$$$$$~;.......{$$$$$$$]........]$$$$$$${.......;~$$$$$$$$$$            ",
   "             $$$$$$$$$$$$$$$|1.......:2$$$$$$2:.......1|$$$$$$34.......5$$$$$$$6........6$$$$$$$5.......43$$$$$$$$$             ",
   "                             [.......}        }.......[        ........         ........         ........                       ",
   "                             .........        .........        ........         ........         ........                       ",
   "                             .........        .........        ........         ........         ........                       ",
   "                             .........        .........        ........         ........         ........                       ",
   "                             .........        .........        ........         ........         ........                       ",
   "                             .........        .........        ........         ........         ........                       ",
   "                             .........        .........        ........         ........         ........                       ",
   "                             .........        .........        ........         ........         ........                       ",
   "                             .........        .........        ........         ........         ........                       ",
   "                             .........        .........        ........         ........         ........                       ",
   "                             .........        .........        ........         ........         ........                       ",
   "                             .........        .........        ........         ........         ........                       ",
   "                             .........        .........        ........         ........         ........                       ",
   "                             .........        .........        ........         ........         ........                       ",
   "                             .........        .........        ........         ........         ........                       ",
   "                             .........        .........        ........         ........         ........                       ",
   "                              ........        ........         ........         ........         ........                       ",
   "                                                                                                                                ",
   "                                                                                                                                ",
   "                                                                                                                                ",
   "                                                                                                                                ",
   "                                                                                                                                ",
   "                                                                                                                                ",
   "                                                                                                                                ",
   "                                                                                                                                ",
   "                                                                                                                                ",
   "                                                                                                                                ",
   "                                                                                                                                ",
   "                                                                                                                                "};

