/* XPM */
static char * lock_xpm[] = {
"128 128 3 1",
" 	c None",
".	c #151316",
"+	c #7E7F7D",
"                                                                                                                                ",
"                                                                                                                                ",
"                                                                                                                                ",
"                                                                                                                                ",
"                                                                                                                                ",
"                                                                                                                                ",
"                                                                                                                                ",
"                                                                                                                                ",
"                                                            .........                                                           ",
"                                                       ..................                                                       ",
"                                                     ......................                                                     ",
"                                                   ..........................                                                   ",
"                                                 ..............................                                                 ",
"                                                ................................                                                ",
"                                              ....................................                                              ",
"                                             ......................................                                             ",
"                                            ........................................                                            ",
"                                           ..........................................                                           ",
"                                           .................++++++++..................                                          ",
"                                          ...............++++++++++++++...............                                          ",
"                                         ..............+++            +++..............                                         ",
"                                        ..............++                ++..............                                        ",
"                                        .............+                    ++............                                        ",
"                                       .............+                       +............                                       ",
"                                       ............                          +...........                                       ",
"                                       ...........                            ............                                      ",
"                                      ...........+                            +...........                                      ",
"                                      ...........                              ...........                                      ",
"                                      ..........+                               ...........                                     ",
"                                     ...........                                ...........                                     ",
"                                     ..........+                                +..........                                     ",
"                                     ..........                                  ..........                                     ",
"                                     ..........                                  ..........                                     ",
"                                     ..........                                  ...........                                    ",
"                                     ..........                                  ...........                                    ",
"                                     ..........                                  ...........                                    ",
"                                     ..........                                  ...........                                    ",
"                                     ..........                                  ...........                                    ",
"                                     ..........                                  ...........                                    ",
"                                     ..........                                  ...........                                    ",
"                                     ..........                                  ...........                                    ",
"                                     ..........                                  ...........                                    ",
"                                     ..........                                  ...........                                    ",
"                                     ..........                                  ...........                                    ",
"                                     ..........                                  ...........                                    ",
"                                     ..........                                  ...........                                    ",
"                                     ..........                                  ...........                                    ",
"                                     ..........                                  ...........                                    ",
"                                ................................................................                                ",
"                             ......................................................................                             ",
"                            .........................................................................                           ",
"                          ............................................................................                          ",
"                          .............................................................................                         ",
"                         ..............................................................................                         ",
"                        ................................................................................                        ",
"                        ................................................................................                        ",
"                        ................................................................................                        ",
"                        .................................................................................                       ",
"                       ..................................................................................                       ",
"                       ..................................................................................                       ",
"                       ..................................................................................                       ",
"                       ..................................................................................                       ",
"                       ..................................................................................                       ",
"                       ..................................................................................                       ",
"                       ..................................................................................                       ",
"                       ..................................................................................                       ",
"                       .......................................++++.......................................                       ",
"                       ....................................++++++++++....................................                       ",
"                       ...................................++        ++...................................                       ",
"                       ..................................+            +..................................                       ",
"                       .................................+              +.................................                       ",
"                       .................................                +................................                       ",
"                       ................................+                 ................................                       ",
"                       ................................                  ................................                       ",
"                       ................................                  ................................                       ",
"                       ................................                  +...............................                       ",
"                       ................................                   ...............................                       ",
"                       ................................                  ................................                       ",
"                       ................................                  ................................                       ",
"                       ................................                  ................................                       ",
"                       .................................                .................................                       ",
"                       .................................                .................................                       ",
"                       ..................................              ..................................                       ",
"                       ...................................            ...................................                       ",
"                       ....................................          ....................................                       ",
"                       .....................................         ....................................                       ",
"                       ....................................          ....................................                       ",
"                       ....................................          ....................................                       ",
"                       ....................................          ....................................                       ",
"                       ....................................          ....................................                       ",
"                       ....................................          ....................................                       ",
"                       ....................................          ....................................                       ",
"                       ....................................          +...................................                       ",
"                       ...................................+           ...................................                       ",
"                       ...................................            ...................................                       ",
"                       ...................................            ...................................                       ",
"                       ...................................            ...................................                       ",
"                       ...................................            ...................................                       ",
"                       ...................................            ...................................                       ",
"                       ...................................             ..................................                       ",
"                       ..................................              ..................................                       ",
"                       ..................................................................................                       ",
"                       ..................................................................................                       ",
"                       ..................................................................................                       ",
"                       ..................................................................................                       ",
"                       ..................................................................................                       ",
"                       ..................................................................................                       ",
"                       ..................................................................................                       ",
"                       ..................................................................................                       ",
"                       ..................................................................................                       ",
"                        .................................................................................                       ",
"                        ................................................................................                        ",
"                        ................................................................................                        ",
"                        +...............................................................................                        ",
"                         ..............................................................................                         ",
"                         +............................................................................+                         ",
"                          +..........................................................................+                          ",
"                           +........................................................................+                           ",
"                            ++....................................................................++                            ",
"                              +++++++++++++++++++++++++++++++++++++++++++++++++++++++++++++++++++++                             ",
"                                 ++++++++++++++++++++++++++++++++++++++++++++++++++++++++++++++                                 ",
"                                                                                                                                ",
"                                                                                                                                ",
"                                                                                                                                ",
"                                                                                                                                ",
"                                                                                                                                ",
"                                                                                                                                ",
"                                                                                                                                "};
