/* XPM */
static char * qdocExpandIcon_xpm[] = {
"64 64 7 1",
" 	c None",
".	c #000000",
"+	c #020202",
"@	c #030303",
"#	c #010101",
"$	c #050505",
"%	c #040404",
"                                                                ",
"          .+@@@@@@@@@@@@@@@@@@@@@@@@@@@@@@@@@@@@@+++#.          ",
"       ..................................................       ",
"      #.................................................##      ",
"    .......................................................     ",
"    ........................................................    ",
"   .........................................................#   ",
"  ............................................................  ",
"  ............................................................  ",
"  .........................                    ...............  ",
" .......................                          ............  ",
" #.....................                            ...........+ ",
" +....................                              ..........$ ",
" @...................         ..............         .........$ ",
" @..................       ....................       ........$ ",
" @.................       ......................       .......$ ",
" @................       ........................       ......$ ",
" +...............                   ..............      ......$ ",
" +............                         ............      .....$ ",
" +...........                           ...........      .....$ ",
" +..........                             ..........      .....$ ",
" @.........                               ..........     .....$ ",
" @........         ...............         .........     .....$ ",
" @.......       .....................       ........     .....$ ",
" @......        ......................       .......     .....$ ",
" @......       ........................      .......     .....$ ",
" @......      ..........................     .......     .....$ ",
" @.....      ...........................      ......     .....$ ",
" +.....      ...........................      ......     .....% ",
" +.....     .............................     ......     .....% ",
" +.....     .............................     ......     .....% ",
" @.....     .............................     ......     .....% ",
" @.....     .............................     ......     .....% ",
" @.....     .............................     ......     .....$ ",
" @.....     .............................     ......     .....$ ",
" @.....     .............................     .....      .....$ ",
" @.....     .............................     .....      .....$ ",
" @.....     .............................     .....      .....$ ",
" @.....     .............................     ....      ......$ ",
" @.....     .............................     ...       ......$ ",
" @.....     .............................     ..        ......$ ",
" @.....     .............................     .        .......$ ",
" @.....     .............................             ........$ ",
" @.....     .............................            .........$ ",
" @.....      ...........................            ..........$ ",
" @.....      ...........................           ...........$ ",
" @.....      ...........................          ............$ ",
" @......      .........................        ...............$ ",
" @......       .......................       .................$ ",
" +......        .....................        .................$ ",
" +.......          ...............          ..................$ ",
" +.........                                ...................$ ",
" #..........                              ....................+ ",
" ............                            .....................  ",
"  ............                          ......................  ",
"  ..............                     .........................  ",
"  ............................................................  ",
"   .........................................................#   ",
"    .......................................................#    ",
"    +#....................................................#     ",
"      ....................................................      ",
"       ..................................................       ",
"          .#+++@@@@@@@@@@@@@@@@@@@@@@@@@@@@@@@@@@+++#.          ",
"                                                                "};
