/* XPM */
static char * Untitled_xpm[] = {
   "128 128 9 1",
   " 	c None",
   ".	c #040602",
   "+	c #1F1BFF",
   "@	c #3F413E",
   "#	c #FF3E44",
   "$	c #848683",
   "%	c #9EA09D",
   "&	c #C1C3C0",
   "*	c #FCFEFB",
   "                                                                                                                                ",
   "                                                                                                                                ",
   "                                                                                                                                ",
   "                                                                                                                                ",
   "                                                                                                                                ",
   "                                                                                                                                ",
   "                                                                                                                                ",
   "                                                                                                                                ",
   "                                                                                                                                ",
   "                                                                                                                                ",
   "                                                                                                                                ",
   "                                                                                                                                ",
   "                                                                                                                                ",
   "                                                                                                                                ",
   "                                                                                                                                ",
   "                                                                                                                                ",
   "                   .................................................................                                            ",
   "                   .................................................................                                            ",
   "                   .................................................................                                            ",
   "                   ...***********************************************************...                                            ",
   "                   ...***********************************************************...                                            ",
   "                   ...***********************************************************...                                            ",
   "                   ...***********************************************************...                                            ",
   "                   ...***********************************************************...                                            ",
   "                   ...***********************************************************...                                            ",
   "                   ...***********************++***+++****************************...                                            ",
   "                   ...***********************++*********++***********************...                                            ",
   "                   ...******************++***************+***********************...                                            ",
   "                   ...******************+********************++******************...                                            ",
   "                   ...***************************************++******************...                                            ",
   "                   ...**************++*******************************************...                                            ",
   "                   ...**************+****************************+***************...                                            ",
   "                   ...*******************************************++**************...                                            ",
   "                   ...********************************************+**************...                                            ",
   "                   ...**********++***********************************************...                                            ",
   "                   ...**********++***********************************************...                                            ",
   "                   ...**********************************************++***********...                                            ",
   "                   ...**********************************************++***********...                                            ",
   "                   ...********+**************************************************...                                            ",
   "                   ...********++*************************************************...                                            ",
   "                   ...********+**************************************************...                                            ",
   "                   ...************************************************+**********...                                            ",
   "                   ...************************************************++*********...                                            ",
   "                   ...***********************************************************...                                            ",
   "                   ...*******++**************************************************...                                            ",
   "                   ...*******++***********************************************##########                                        ",
   "                   ...************************************************++*####################                                   ",
   "                   ...************************************************+########################                                 ",
   "                   ...***********************************************#############################                              ",
   "                   ...*******++************************************################################                             ",
   "                   ...*******++**********************************#################.. ################                           ",
   "                   ...********+*********************************#####*################################                          ",
   "                   ...*****************************************####**######################   #### ####                         ",
   "                   ...****************************************####**####****###**...   ####    ###  ####                        ",
   "                   ...*********+*****************************####***###*****###**...    ###     ###  ####                       ",
   "                   ...*********++***************************####***###*****###***...    ###      #########                      ",
   "                   ...*********++**************************#####**###******###***...     ###     ##########                     ",
   "                   ...************************************####*#####+******##****...     ###      ####   ###                    ",
   "                   ...************************************###**#####******###****...      ##     #####   ###                    ",
   "                   ...************++*********************###****####******###****...      ##   #######    ###                   ",
   "                   ...************++********************####****#######***##*****...      ########  ###    ###                  ",
   "                   ...**********************************###****+##*#########*****...    ########    ###    ###                  ",
   "                   ...****************+*****************###****###****#######################        ##    ####                 ",
   "                   ...****************++***************####****##********###############   ##        ###   ####                 ",
   "                   ...*****************+***************####++*###********###*****...       ##         ##  ######                ",
   "                   ...*********************++*********#####+**###********##******...       ###        ## ### ###                ",
   "                   ...*********************++***++***+######**##*********##******...       ###        ######  ##                ",
   "                   ...**************************++****##**######*********##******...        ##        #####   ##                ",
   "                   ...********************************##***#####*********##******...        ##        ####    ##                ",
   "                   ...*******************************###****####*********##******...        ##       ####      ##               ",
   "                   ...*******************************##******####********##******...        ##     ######      ##               ",
   "                   ...*******************************##******######*****###******...        ##  ###### ##     ###               ",
   "                   ...*******************************###*****##*######**###******...        ########   ###    ###               ",
   "                   ...*******************************###*****##***#########******...     ########       ##    ###               ",
   "                   ...................................###....##......############..############         ##   ####               ",
   "                   ...................................###....##.........#########..#######  ##          ##  #####               ",
   "                   ....................................###...##.........##..........        ##          ## ### ##               ",
   "                                                       ####  ##         ##                  ##          ###### ##               ",
   "                                                     ## ###  ##         ##                  ##          #####  ##               ",
   "                                                     ##   #####         ###                 ##         #####   ##               ",
   "                                                     ###  #####         ###                 ##         ####    ##               ",
   "                                                      ##    ####         ##                 ##       ####     ###               ",
   "                                                      ##     #####       ##                 ##     ######     ##                ",
   "                                                      ###     ######     ##                 ##  #########     ##                ",
   "                                                      ###     #########  ##                 ########  ###    ###                ",
   "                                                       ###    ##   #########             ########     ##    ####                ",
   "                                                       ###    ###     ########################        ##    ###                 ",
   "                                                       ####    ##        ######## #######  ##        ###   ####                 ",
   "                                                        ####   ##         ##               ##        ###  #####                 ",
   "                                                        #####  ###        ##               ##        ##  #####                  ",
   "                                                         #####  ##        ##               ##       ##########                  ",
   "                                                          #########       ##              ###       #########                   ",
   "                                                          #########       ###             ##       #########                    ",
   "                                                           #########      ###             ##      #########                     ",
   "                                                            #########      ##            ###    ###### ####                     ",
   "                                                            ####  #######  ###           ### #######  ####                      ",
   "                                                             ####  ############         ############ ####                       ",
   "                                                              ##### ############    ########## #### ####                        ",
   "                                                               #########    ####       ####   #########                         ",
   "                                                                 #########  ####       ###   #########                          ",
   "                                                                  #########  ###      ####  ########                            ",
   "                                                                    #############    #############                              ",
   "                                                                      ###########################                               ",
   "                                                                        ######################                                  ",
   "                                                                           ################                                     ",
   "                                                                                                                                ",
   "                                                                                                                                ",
   "                                                                                                                                ",
   "                                                                                                                                ",
   "                                                                                                                                ",
   "                                                                                                                                ",
   "                                                                                                                                ",
   "                                                                                                                                ",
   "                                                                                                                                ",
   "                                                                                                                                ",
   "                                                                                                                                ",
   "                                                                                                                                ",
   "                                                                                                                                ",
   "                                                                                                                                ",
   "                                                                                                                                ",
   "                                                                                                                                ",
   "                                                                                                                                ",
   "                                                                                                                                ",
   "                                                                                                                                ",
   "                                                                                                                                ",
   "                                                                                                                                ",
   "                                                                                                                                ",
   "                                                                                                                                "};
