/* XPM */
static char * remove_xpm[] = {
"128 128 6 1",
" 	c None",
".	c #000000",
"+	c #FF0000",
"@	c #FF5656",
"#	c #FFDADA",
"$	c #FFFFFF",
"                                                                                                                                ",
"                                                                                                                                ",
"                                                                                                                                ",
"                                                                                                                                ",
"                                                                                                                                ",
"                                                                                                                                ",
"     ...........................................................................................................                ",
"    .............................................................................................................               ",
"   ...............................................................................................................              ",
"  .................................................................................................................             ",
"  .................................................................................................................             ",
"  .................................................................................................................             ",
"  .................................................................................................................             ",
"  .................................................................................................................             ",
"  .................................................................................................................             ",
"  .................................................................................................................             ",
"  .................................................................................................................             ",
"  .................................................................................................................             ",
"  .................................................................................................................             ",
"  .................................................................................................................             ",
"  .................................................................................................................             ",
"  .................................................................................................................             ",
"  .................................................................................................................             ",
"  .................................................................................................................             ",
"  .................................................................................................................             ",
"  .................................................................................................................             ",
"  .................................................................................................................             ",
"  .................................................................................................................             ",
"  .................................................................................................................             ",
"  .................................................................................................................             ",
"  .................................................................................................................             ",
"   ...............................................................................................................              ",
"    .............................................................................................................               ",
"     ...........................................................................................................                ",
"                                                                                                                                ",
"                                                                                                                                ",
"     ...........................................................................................................                ",
"    .............................................................................................................               ",
"   ...............................................................................................................              ",
"  .................................................................................................................             ",
"  .................................................................................................................             ",
"  .................................................................................................................             ",
"  .................................................................................................................             ",
"  .................................................................................................................             ",
"  .................................................................................................................             ",
"  .................................................................................................................             ",
"  .................................................................................................................             ",
"  .................................................................................................................             ",
"  .................................................................................................................             ",
"  .................................................................................................................             ",
"  .................................................................................................................             ",
"  .................................................................................................................             ",
"  .................................................................................................................             ",
"  .................................................................................................................             ",
"  .................................................................................................................             ",
"  .................................................................................................................             ",
"  .................................................................................................................             ",
"  .................................................................................................................             ",
"  .................................................................................................................             ",
"  .................................................................................................................             ",
"  .................................................................................................................             ",
"   ...............................................................................................................              ",
"    .............................................................................................................               ",
"     ...........................................................................................................                ",
"                                                                                                                                ",
"                                                                                                                                ",
"     +++++++++++++++++++++++++++++++++++++++++++++++++++++++++++++++++++++++++++++++++++++++++++++++++++++++++++                ",
"    +++++++++++++++++++++++++++++++++++++++++++++++++++++++++++++++++++++++++++++++++++++++++++++++++++++++++++++               ",
"   +++++++++++++++++++++++++++++++++++++++++++++++++++++++++++++++++++++++++++++++++++++++++++++++++++++++++++++++              ",
"  +++++++++++++++++++++++++++++++++++++++++++++++++++++++++++++++++++++++++++++++++++++++++++++++++++++++++++++++++             ",
"  +++++++++++++++++++++++++++++++++++++++++++++++++++++++++++++++++++++++++++++++++++++++++++++++++++++++++++++++++             ",
"  +++++++++++++++++++++++++++++++++++++++++++++++++++++++++++++++++++++++++++++++++++++++++++++++++++++++++++++++++             ",
"  +++++++++++++++++++++++++++++++++++++++++++++++++++++++++++++++++++++++++++++++++++++++++++++++++++++++++++++++++             ",
"  +++++++++++++++++++++++++++++++++++++++++++++++++++++++++++++++++++++++++++++++++++++++++++++++++++++++++++++++++             ",
"  +++++++++++++++++++++++++++++++++++++++++++++++++++++++++++++++++++++++++++++++++++++++++++++++++++++++++++++++++             ",
"  +++++++++++++++++++++++++++++++++++++++++++++++++++++++++++++++++++++++++++++++++++++++++++++++++++++++++++++++++             ",
"  +++++++++++++++++++++++++++++++++++++++++++++++++++++++++++++++++++++++++++++++++++++++++++++++++++++++++++++++++             ",
"  ++++++++++++++++++++++++++++++++++++++@#$$$$$$$$$$$$$$$$$$$$$$$$$$$$$$$$$$@++++++++++++++++++++++++++++++++++++++             ",
"  +++++++++++++++++++++++++++++++++++++@$$$$$$$$$$$$$$$$$$$$$$$$$$$$$$$$$$$$$@+++++++++++++++++++++++++++++++++++++             ",
"  +++++++++++++++++++++++++++++++++++++#$$$$$$$$$$$$$$$$$$$$$$$$$$$$$$$$$$$$$#+++++++++++++++++++++++++++++++++++++             ",
"  +++++++++++++++++++++++++++++++++++++#$$$$$$$$$$$$$$$$$$$$$$$$$$$$$$$$$$$$$#+++++++++++++++++++++++++++++++++++++             ",
"  +++++++++++++++++++++++++++++++++++++@$$$$$$$$$$$$$$$$$$$$$$$$$$$$$$$$$$$$$@+++++++++++++++++++++++++++++++++++++             ",
"  ++++++++++++++++++++++++++++++++++++++@#$$$$$$$$$$$$$$$$$$$$$$$$$$$$$$$$$$@++++++++++++++++++++++++++++++++++++++             ",
"  +++++++++++++++++++++++++++++++++++++++++++++++++++++++++++++++++++++++++++++++++++++++++++++++++++++++++++++++++             ",
"  +++++++++++++++++++++++++++++++++++++++++++++++++++++++++++++++++++++++++++++++++++++++++++++++++++++++++++++++++             ",
"  +++++++++++++++++++++++++++++++++++++++++++++++++++++++++++++++++++++++++++++++++++++++++++++++++++++++++++++++++             ",
"  +++++++++++++++++++++++++++++++++++++++++++++++++++++++++++++++++++++++++++++++++++++++++++++++++++++++++++++++++             ",
"  +++++++++++++++++++++++++++++++++++++++++++++++++++++++++++++++++++++++++++++++++++++++++++++++++++++++++++++++++             ",
"  +++++++++++++++++++++++++++++++++++++++++++++++++++++++++++++++++++++++++++++++++++++++++++++++++++++++++++++++++             ",
"  +++++++++++++++++++++++++++++++++++++++++++++++++++++++++++++++++++++++++++++++++++++++++++++++++++++++++++++++++             ",
"  +++++++++++++++++++++++++++++++++++++++++++++++++++++++++++++++++++++++++++++++++++++++++++++++++++++++++++++++++             ",
"   +++++++++++++++++++++++++++++++++++++++++++++++++++++++++++++++++++++++++++++++++++++++++++++++++++++++++++++++              ",
"    +++++++++++++++++++++++++++++++++++++++++++++++++++++++++++++++++++++++++++++++++++++++++++++++++++++++++++++               ",
"     +++++++++++++++++++++++++++++++++++++++++++++++++++++++++++++++++++++++++++++++++++++++++++++++++++++++++++                ",
"                                                                                                                                ",
"                                                                                                                                ",
"     ...........................................................................................................                ",
"    .............................................................................................................               ",
"   ...............................................................................................................              ",
"  .................................................................................................................             ",
"  .................................................................................................................             ",
"  .................................................................................................................             ",
"  .................................................................................................................             ",
"  .................................................................................................................             ",
"  .................................................................................................................             ",
"  .................................................................................................................             ",
"  .................................................................................................................             ",
"  .................................................................................................................             ",
"  .................................................................................................................             ",
"  .................................................................................................................             ",
"  .................................................................................................................             ",
"  .................................................................................................................             ",
"  .................................................................................................................             ",
"  .................................................................................................................             ",
"  .................................................................................................................             ",
"  .................................................................................................................             ",
"  .................................................................................................................             ",
"  .................................................................................................................             ",
"  .................................................................................................................             ",
"  .................................................................................................................             ",
"  .................................................................................................................             ",
"   ...............................................................................................................              ",
"    .............................................................................................................               ",
"     ...........................................................................................................                ",
"                                                                                                                                ",
"                                                                                                                                ",
"                                                                                                                                ",
"                                                                                                                                "};
