/* XPM */
static char * removeFolder_xpm[] = {
"128 128 14 1",
" 	c None",
".	c #000200",
"+	c #010300",
"@	c #020401",
"#	c #010301",
"$	c #020502",
"%	c #000300",
"&	c #000100",
"*	c #000000",
"=	c #010401",
"-	c #565656",
";	c #DADADA",
">	c #FFFFFF",
",	c #010200",
"                                                                                                                                ",
"                                                                                                                                ",
"                                                                                                                                ",
"                                                                                                                                ",
"                                                                                                                                ",
"                                                                                                                                ",
"                                                                                                                                ",
"                                                                                                                                ",
"                                                                                                                                ",
"                                                                                                                                ",
"                                                                                                                                ",
"  ...........................................                                                                                   ",
" .............................................                                                                                  ",
" ..............................................                                                                                 ",
"...............................................                                                                                 ",
"................................................                                                                                ",
"................................................                                                                                ",
"................................................                                                                                ",
"..........................................................................................................                      ",
"............................................................................................................                    ",
".............................................................................................................                   ",
"..............................................................................................................                  ",
"..............................................................................................................                  ",
"..............................................................................................................                  ",
"..............................................................................................................                  ",
"..............................................................................................................                  ",
"..................                                                                                                              ",
"................                                                                                                                ",
"...............                                                                                                                 ",
"..............                                                                                                                  ",
"..............       .......................................................................................................    ",
"..............      .........................................................................................................   ",
".............      ...........................................................................................................  ",
".............     ............................................................................................................. ",
".............     ............................................................................................................. ",
"............     .............................................................................................................. ",
"............     .............................................................................................................. ",
"............     .............................................................................................................  ",
"............     .............................................................................................................  ",
"...........     +.............................................................................................................  ",
"...........     ..............................................................................................................  ",
"...........     .............................................................................................................   ",
"..........     ..............................................................................................................   ",
"..........     ..............................................................................................................   ",
"..........     .............................................................................................................    ",
"..........     .............................................................................................................    ",
".........     +.............................................................................................................    ",
".........     ..............................................................................................................    ",
".........     .............................................................................................................     ",
"........     ..............................................................................................................     ",
"........     ..............................................................................................................     ",
"........     ..............................................................................................................     ",
"........     .............................................................................................................      ",
".......     +.............................................................................................................      ",
".......     ...................................................................................@ .. #.....................      ",
".......     .............................................................................+                ...............       ",
"......     ............................................................................                      ............       ",
"......     .........................................................................                           ..........       ",
"......     .......................................................................              $...#            ........       ",
".....+     ....................................................................%+          ..............+         .....        ",
".....     +....................................................................         .....................        ...        ",
".....     ....................................................................       ..........................       ..        ",
".....     ..................................................................        ............................+               ",
"....     ..................................................................       ..........&&********&&...........             ",
"....     .................................................................       %........&**************&..........            ",
"....     ................................................................      +........&******************&.........           ",
"...+     ................................................................     #.......&**********************&........+         ",
"...     +...............................................................     =.......&************************&.........        ",
"...     ...............................................................     %.......&**************************&........        ",
"...     ..............................................................     #.......&****************************&........       ",
"..     ..............................................................+     .......&******************************&........      ",
"..     ..............................................................     .......&********************************&........     ",
"..     ..............................................................    ........**********************************........     ",
"..     .............................................................     .......&**********************************&........    ",
".     +.............................................................    ........************************************.........   ",
".     .............................................................     .......&************************************&........   ",
"      .............................................................    ........**************************************........   ",
"     ..............................................................    .......&**************************************&........  ",
"     .............................................................     .......****************************************........  ",
"     .............................................................    +.......****************************************......... ",
"     .............................................................    .......&****************************************&........ ",
"    +............................................................     .......&****************************************&........ ",
"    .............................................................     .......******************************************........ ",
"    .............................................................    ........******************************************........ ",
"   ..............................................................    ........******************************************........ ",
"   ..............................................................    #.......*****-;>>>>>>>>>>>>>>>>>>>>>>>>>>>>>>-****.........",
"   ..............................................................    ........****->>>>>>>>>>>>>>>>>>>>>>>>>>>>>>>>>-***.........",
"   ..............................................................    ........****;>>>>>>>>>>>>>>>>>>>>>>>>>>>>>>>>>;***.........",
"  +..............................................................    ........****;>>>>>>>>>>>>>>>>>>>>>>>>>>>>>>>>>;***.........",
"  ...............................................................    ........****->>>>>>>>>>>>>>>>>>>>>>>>>>>>>>>>>-***.........",
"  ...............................................................    #.......*****-;>>>>>>>>>>>>>>>>>>>>>>>>>>>>>>-****.........",
" ................................................................    ........******************************************.........",
" ................................................................    ........******************************************........ ",
" ................................................................#   ........&****************************************&........ ",
" .................................................................    .......&****************************************&........ ",
"..................................................................    ........****************************************......... ",
"..................................................................    ........****************************************........  ",
" ..................................................................    .......&**************************************&........  ",
" ..................................................................    %.......**************************************........,  ",
"  .................................................................    ........&************************************&........   ",
"                                                                        ........************************************.........   ",
"                                                                        ........&**********************************&........    ",
"                                                                         ........**********************************.........    ",
"                                                                          .......&********************************&........     ",
"                                                                          ........&******************************&.........     ",
"                                                                           ........&****************************&.........      ",
"                                                                            ........&**************************&.........       ",
"                                                                            +........&************************&.........        ",
"                                                                             .........&**********************&.........         ",
"                                                                              ..........&******************&..........          ",
"                                                                                ..........&**************&...........           ",
"                                                                                 ...........&&*******...............            ",
"                                                                                  %................................             ",
"                                                                                    .............................               ",
"                                                                                      .........................                 ",
"                                                                                        ....................                    ",
"                                                                                           ..%.........+.                       ",
"                                                                                                                                ",
"                                                                                                                                ",
"                                                                                                                                ",
"                                                                                                                                ",
"                                                                                                                                ",
"                                                                                                                                ",
"                                                                                                                                ",
"                                                                                                                                ",
"                                                                                                                                ",
"                                                                                                                                ",
"                                                                                                                                "};
