/* XPM */
static char * Untitled_xpm[] = {
   "128 128 5 1",
   " 	c None",
   ".	c #000000",
   "+	c #626262",
   "@	c #636363",
   "#	c #616161",
   "                                                                                                                                ",
   "                                                                                                                                ",
   "                                                                                                                                ",
   "                                                                                                                                ",
   "                                                                                                                                ",
   "                                                                                                                                ",
   "                                                                                                                                ",
   "                                                                                                                                ",
   "                                                                                                                                ",
   "                                                                                                                                ",
   "                                                                                                                                ",
   "                                                                                                                                ",
   "                                                                                                                                ",
   "                                                                                                                                ",
   "                                                                                                                                ",
   "                                                                                                                                ",
   "                                                              .                                                                 ",
   "                                                             ...                            +@                                  ",
   "                                                            .....                          +@@@                                 ",
   "                                                           .......                        +@@@@@                                ",
   "                                                          .........                      +@@@@@@@                               ",
   "                                                         ...........                    +@@@@@@@@@                              ",
   "                                                        .............                  +@@@@@@@@@@@                             ",
   "                                                       ...............                +@@@@@@@@@@@@@                            ",
   "                                                      ...............                +@@@@@@@@@@@@@@@                           ",
   "                                                     ...............                +@@@@@@@@@@@@@@@                            ",
   "                                                    ...............                +@@@@@@@@@@@@@@@                             ",
   "                                                   ...............                +@@@@@@@@@@@@@@@                              ",
   "                                                  ...............                +@@@@@@@@@@@@@@@                               ",
   "                                                 ...............                +@@@@@@@@@@@@@@@                                ",
   "                                                ...............                +@@@@@@@@@@@@@@@                                 ",
   "                                               ...............                +@@@@@@@@@@@@@@@                                  ",
   "                                              ...............                +@@@@@@@@@@@@@@@                                   ",
   "                                             ...............                +@@@@@@@@@@@@@@@                                    ",
   "                                            ...............                +@@@@@@@@@@@@@@@                                     ",
   "                                           ...............                +@@@@@@@@@@@@@@@                                      ",
   "                                          ...............                +@@@@@@@@@@@@@@@                                       ",
   "                                         ...............                +@@@@@@@@@@@@@@@                                        ",
   "                                        ...............                +@@@@@@@@@@@@@@@                                         ",
   "                                       ...............                +@@@@@@@@@@@@@@@                                          ",
   "                                      ...............                +@@@@@@@@@@@@@@@                                           ",
   "                                     ...............                +@@@@@@@@@@@@@@@                                            ",
   "                                    ...............                +@@@@@@@@@@@@@@@                                             ",
   "                                   ...............                +@@@@@@@@@@@@@@@                                              ",
   "                                  ...............                +@@@@@@@@@@@@@@@                                               ",
   "                                 ...............                +@@@@@@@@@@@@@@@                                                ",
   "                                ...............                +@@@@@@@@@@@@@@@                                                 ",
   "                               ...............                +@@@@@@@@@@@@@@@                                                  ",
   "                              ...............                +@@@@@@@@@@@@@@@                                                   ",
   "                             ...............                +@@@@@@@@@@@@@@@                                                    ",
   "                            ...............                +@@@@@@@@@@@@@@@                                                     ",
   "                           ...............                +@@@@@@@@@@@@@@@                                                      ",
   "                          ...............                +@@@@@@@@@@@@@@@                                                       ",
   "                         ...............                +@@@@@@@@@@@@@@@                                                        ",
   "                        ...............                +@@@@@@@@@@@@@@@                                                         ",
   "                       ...............                +@@@@@@@@@@@@@@@                                                          ",
   "                      ...............                +@@@@@@@@@@@@@@@                                                           ",
   "                     ...............                +@@@@@@@@@@@@@@@                                                            ",
   "                    ...............                +@@@@@@@@@@@@@@@                                                             ",
   "                   ...............                +@@@@@@@@@@@@@@@                                                              ",
   "                  ...............                +@@@@@@@@@@@@@@@                                                               ",
   "                 ...............                +@@@@@@@@@@@@@@@                                                                ",
   "                ...............                +@@@@@@@@@@@@@@@                                                                 ",
   "               ................               #@@@@@@@@@@@@@@@                                                                  ",
   "               ................                @@@@@@@@@@@@@@@@                                                                 ",
   "                ................                @@@@@@@@@@@@@@@@                                                                ",
   "                 ................                @@@@@@@@@@@@@@@@                                                               ",
   "                  ................                @@@@@@@@@@@@@@@@                                                              ",
   "                   ................                @@@@@@@@@@@@@@@@                                                             ",
   "                    ................                @@@@@@@@@@@@@@@@                                                            ",
   "                     ................                @@@@@@@@@@@@@@@@                                                           ",
   "                      ................                @@@@@@@@@@@@@@@@                                                          ",
   "                       ................                @@@@@@@@@@@@@@@@                                                         ",
   "                        ................                @@@@@@@@@@@@@@@@                                                        ",
   "                         ................                @@@@@@@@@@@@@@@@                                                       ",
   "                          ................                @@@@@@@@@@@@@@@@                                                      ",
   "                           ................                @@@@@@@@@@@@@@@@                                                     ",
   "                            ................                @@@@@@@@@@@@@@@@                                                    ",
   "                             ................                @@@@@@@@@@@@@@@@                                                   ",
   "                              ................                @@@@@@@@@@@@@@@@                                                  ",
   "                               ................                @@@@@@@@@@@@@@@@                                                 ",
   "                                ................                @@@@@@@@@@@@@@@@                                                ",
   "                                 ................                @@@@@@@@@@@@@@@@                                               ",
   "                                  ................                @@@@@@@@@@@@@@@@                                              ",
   "                                   ................                @@@@@@@@@@@@@@@@                                             ",
   "                                    ................                @@@@@@@@@@@@@@@@                                            ",
   "                                     ................                @@@@@@@@@@@@@@@@                                           ",
   "                                      ................                @@@@@@@@@@@@@@@@                                          ",
   "                                       ................                @@@@@@@@@@@@@@@@                                         ",
   "                                        ................                @@@@@@@@@@@@@@@@                                        ",
   "                                         ................                @@@@@@@@@@@@@@@@                                       ",
   "                                          ................                @@@@@@@@@@@@@@@@                                      ",
   "                                           ................                @@@@@@@@@@@@@@@@                                     ",
   "                                            ................                @@@@@@@@@@@@@@@@                                    ",
   "                                             ................                @@@@@@@@@@@@@@@@                                   ",
   "                                              ................                @@@@@@@@@@@@@@@@                                  ",
   "                                               ................                @@@@@@@@@@@@@@@@                                 ",
   "                                                ................                @@@@@@@@@@@@@@@@                                ",
   "                                                 ................                @@@@@@@@@@@@@@@@                               ",
   "                                                  ................                @@@@@@@@@@@@@@@@                              ",
   "                                                   ................                @@@@@@@@@@@@@@@@                             ",
   "                                                    ................                @@@@@@@@@@@@@@@@                            ",
   "                                                     ................                @@@@@@@@@@@@@@@@                           ",
   "                                                      ................                @@@@@@@@@@@@@@@+                          ",
   "                                                       ..............                  @@@@@@@@@@@@@+                           ",
   "                                                        ............                    @@@@@@@@@@@+                            ",
   "                                                         ..........                      @@@@@@@@@+                             ",
   "                                                          ........                        @@@@@@@+                              ",
   "                                                           ......                          @@@@@+                               ",
   "                                                            ....                            @@@+                                ",
   "                                                             ..                              @+                                 ",
   "                                                                                                                                ",
   "                                                                                                                                ",
   "                                                                                                                                ",
   "                                                                                                                                ",
   "                                                                                                                                ",
   "                                                                                                                                ",
   "                                                                                                                                ",
   "                                                                                                                                ",
   "                                                                                                                                ",
   "                                                                                                                                ",
   "                                                                                                                                ",
   "                                                                                                                                ",
   "                                                                                                                                ",
   "                                                                                                                                ",
   "                                                                                                                                ",
   "                                                                                                                                ",
   "                                                                                                                                "};

