/* XPM */
static char * Untitled_xpm[] = {
   "128 128 16 1",
   " 	c None",
   ".	c #000300",
   "+	c #420302",
   "@	c #001900",
   "#	c #201BFF",
   "$	c #004100",
   "%	c #FF0000",
   "&	c #BC1600",
   "*	c #008900",
   "=	c #A75900",
   "-	c #748F00",
   ";	c #1BB300",
   ">	c #09CA00",
   ",	c #0AFF00",
   "'	c #7EFF00",
   ")	c #FEFFFC",
   "                                                                                                                                ",
   "                                                                                                                                ",
   "                                                                                                                                ",
   "                                                                                                                                ",
   "                                                                                                                                ",
   "                                                                                                                                ",
   "                                                                                                                                ",
   "                                                                                                                                ",
   "                                                                                                                                ",
   "                                                                                                                                ",
   "                                                                                                                                ",
   "                                                                                                                                ",
   "                                                                                                                                ",
   "                                                                                                                                ",
   "                                                                                                                                ",
   "                                                                                                                                ",
   "                                                          %%%%%%%%                                                              ",
   "                                                       %%%%%%%%%%%%%%                                                           ",
   "                                                   %%%%%%%%%%%%%%%%%%%%%%                                                       ",
   "                                                %%%%%%%%%%%%%%%%%%%%%%%%%%%%                                                    ",
   "                                            %%%%%%%%%%%%%%%%%%%%%%%%%%%%%%%%%%%%                                                ",
   "                                        %%%%%%%%%%%%%%%%%%%%%%%%%%%%%%%%%%%%%%%%%%%%                                            ",
   "                                    %%%%%%%%%%%%%%%%%%%%%%%%%%%%%%%%%%%%%%%%%%%%%%%%%%%%                                        ",
   "                                 %%%%%%%%%%%%%%%%%%%%%%%%%%%%%%%%%%%%%%%%%%%%%%%%%%%%%%%%%%                                     ",
   "                             %%%%%%%%%%%%%%%%%%%%%%%%%%%%%%%%%%%%%%%%%%%%%%%%%%%%%%%%%%%%%%%%%%                                 ",
   "                         %%%%%%%%%%%%%%%%%%%%%%%%%%%%%%%%%%%%%%%%%%%%%%%%%%%%%%%%%%%%%%%%%%%%%%%%%%                             ",
   "                      %%%%%%%%%%%%%%%%%%%%%%%%%%%%%%%%%%%%%%%%%%%%%%%%%%%%%%%%%%%%%%%%%%%%%%%%%%%%%%%%                          ",
   "                  %%%%%%%%%%%%%%%%%%%%%%%%%%%%%%%%%%%%%%%%%%%%%%%%%%%%%%%%%%%%%%%%%%%%%%%%%%%%%%%%%%%%%%%%                      ",
   "              ,>=%%%%%%%%%%%%%%%%%%%%%%%%%%%%%%%%%%%%%%%%%%%%%%%%%%%%%%%%%%%%%%%%%%%%%%%%%%%%%%%%%%%%%%%%%%%##                  ",
   "              ,,,,,;=%%%%%%%%%%%%%%%%%%%%%%%%%%%%%%%%%%%%%%%%%%%%%%%%%%%%%%%%%%%%%%%%%%%%%%%%%%%%%%%%%%%######                  ",
   "              ,,,,,,,,,-&%%%%%%%%%%%%%%%%%%%%%%%%%%%%%%%%%%%%%%%%%%%%%%%%%%%%%%%%%%%%%%%%%%%%%%%%%%%%#########                  ",
   "              ,,,,,,,,,,,,>=%%%%%%%%%%%%%%%%%%%%%%%%%%%%%%%%%%%%%%%%%%%%%%%%%%%%%%%%%%%%%%%%%%%%%#############                  ",
   "              ,,,,,,,,,,,,,,,,>=%%%%%%%%%%%%%%%%%%%%%%%%%%%%%%%%%%%%%%%%%%%%%%%%%%%%%%%%%%%%%#################                  ",
   "              ,,,,,,,,,,,,,,,,,,,,;&%%%%%%%%%%%%%%%%%%%%%%%%%%%%%%%%%%%%%%%%%%%%%%%%%%%%%%####################                  ",
   "              ,,,,,,,,,,,,,,,,,,,,,,,>-%%%%%%%%%%%%%%%%%%%%%%%%%%%%%%%%%%%%%%%%%%%%%%%########################                  ",
   "              ,,,,,,,,,,,,,,,,,,,,,,,,,,,>=%%%%%%%%%%%%%%%%%%%%%%%%%%%%%%%%%%%%%%%############################                  ",
   "              ,,,,,,,,,,,,,,,,,,,,,,,,,,,,,,,;=%%%%%%%%%%%%%%%%%%%%%%%%%%%%%%%%###############################                  ",
   "              ,,,,,,,,,,,,,,,,,,,,,,,,,,,,,,,,,,,-&%%%%%%%%%%%%%%%%%%%%%%%%###################################                  ",
   "              ,,,,,,,,,,,,,,,,,,,,,,,,,,,,,,,,,,,,,,;=%%%%%%%%%%%%%%%%%#######################################                  ",
   "              ,,,,,,,,,,,,,,,,,,,,,,,,,,,,,,,,,,,,,,,,,,;=%%%%%%%%%%##########################################                  ",
   "              ,,,,,,,,,,,,,,,,,,,,,,,,,,,,,,,,,,,,,,,,,,,,,,*=%%##############################################                  ",
   "              ,,,,,,,,,,,,,,,,,,,,,,,,,,,,,,,,,,,,,,,,,,,,,,,,################################################                  ",
   "              ,,,,,,,,,,,,,,,,,,,,,,,,,,,,,,,,,,,,,,,,,,,,,,,,################################################                  ",
   "              ,,,,,,,,,,,,,,,,,,,,,,,,,,,,,,,,,,,,,,,,,,,,,,,,################################################                  ",
   "              ,,,,,,,,,,,,,,,,,,,,,,,,,,,,,,,,,,,,,,,,,,,,,,,,################################################                  ",
   "              ,,,,,,,,,,,,,,,,,,,,,,,,,,,,,,,,,,,,,,,,,,,,,,,,################################################                  ",
   "              ,,,,,,,,,,,,,,,,,,,,,,,,,,,,,,,,,,,,,,,,,,,,,,,,################################################                  ",
   "              ,,,,,,,,,,,,,,,,,,,,,,,,,,,,,,,,,,,,,,,,,,,,,,,,################################################                  ",
   "              ,,,,,,,,,,,,,,,,,,,,,,,,,,,,,,,,,,,,,,,,,,,,,,,,################################################                  ",
   "              ,,,,,,,,,,,,,,,,,,,,,,,,,,,,,,,,,,,,,,,,,,,,,,,,################################################                  ",
   "              ,,,,,,,,,,,,,,,,,,,,,,,,,,,,,,,,,,,,,,,,,,,,,,,,################################################                  ",
   "              ,,,,,,,,,,,,,,,,,,,,,,,,,,,,,,,,,,,,,,,,,,,,,,,,################################################                  ",
   "              ,,,,,,,,,,,,,,,,,,,,,,,,,,,,,,,,,,,,,,,,,,,,,,,,################################################                  ",
   "              ,,,,,,,,,,,,,,,,,,,,,,,,,,,,,,,,,,,,,,,,,,,,,,,,################################################                  ",
   "              ,,,,,,,,,,,,,,,,,,,,,,,,,,,,,,,,,,,,,,,,,,,,,,,,################################################                  ",
   "              ,,,,,,,,,,,,,,,,,,,,,,,,,,,,,,,,,,,,,,,,,,,,,,,,################################################                  ",
   "              ,,,,,,,,,,,,,,,,,,,,,,,,,,,,,,,,,,,,,,,,,,,,,,,,################################################                  ",
   "              ,,,,,,,,,,,,,,,,,,,,,,,,,,,,,,,,,,,,,,,,,,,,,,,,################################################                  ",
   "              ,,,,,,,,,,,,,,,,,,,,,,,,,,,,,,,,,,,,,,,,,,,,,,,,################################################                  ",
   "              ,,,,,,,,,,,,,,,,,,,,,,,,,,,,,,,,,,,,,,,,,,,,,,,,################################################                  ",
   "              ,,,,,,,,,,,,,,,,,,,,,,,,,,,,,,,,,,,,,,,,,,,,,,,,################################################                  ",
   "              ,,,,,,,,,,,,,,,,,,,,,,,,,,,,,,,,,,,,,,,,,,,,,,,,################################################                  ",
   "              ,,,,,,,,,,,,,,,,,,,,,,,,,,,,,,,,,,,,,,,,,,,,,,,,################################################                  ",
   "              ,,,,,,,,,,,,,,,,,,,,,,,,,,,,,,,,,,,,,,,,,,,,,,,,################################################                  ",
   "              ,,,,,,,,,,,,,,,,,,,,,,,,,,,,,,,,,,,,,,,,,,,,,,,,################################################                  ",
   "              ,,,,,,,,,,,,,,,,,,,,,,,,,,,,,,,,,,,,,,,,,,,,,,,,################################################                  ",
   "              ,,,,,,,,,,,,,,,,,,,,,,,,,,,,,,,,,,,,,,,,,,,,,,,,################################################                  ",
   "              ,,,,,,,,,,,,,,,,,,,,,,,,,,,,,,,,,,,,,,,,,,,,,,,,################################################                  ",
   "              ,,,,,,,,,,,,,,,,,,,,,,,,,,,,,,,,,,,,,,,,,,,,,,,,################################################                  ",
   "              ,,,,,,,,,,,,,,,,,,,,,,,,,,,,,,,,,,,,,,,,,,,,,,,,################################################                  ",
   "              ,,,,,,,,,,,,,,,,,,,,,,,,,,,,,,,,,,,,,,,,,,,,,,,,################################################                  ",
   "              ,,,,,,,,,,,,,,,,,,,,,,,,,,,,,,,,,,,,,,,,,,,,,,,,################################################                  ",
   "              ,,,,,,,,,,,,,,,,,,,,,,,,,,,,,,,,,,,,,,,,,,,,,,,,################################################                  ",
   "              ,,,,,,,,,,,,,,,,,,,,,,,,,,,,,,,,,,,,,,,,,,,,,,,,################################################                  ",
   "              ,,,,,,,,,,,,,,,,,,,,,,,,,,,,,,,,,,,,,,,,,,,,,,,,################################################                  ",
   "              ,,,,,,,,,,,,,,,,,,,,,,,,,,,,,,,,,,,,,,,,,,,,,,,,################################################                  ",
   "              ,,,,,,,,,,,,,,,,,,,,,,,,,,,,,,,,,,,,,,,,,,,,,,,,################################################                  ",
   "              ,,,,,,,,,,,,,,,,,,,,,,,,,,,,,,,,,,,,,,,,,,,,,,,,################################################                  ",
   "              ,,,,,,,,,,,,,,,,,,,,,,,,,,,,,,,,,,,,,,,,,,,,,,,,################################################                  ",
   "              ,,,,,,,,,,,,,,,,,,,,,,,,,,,,,,,,,,,,,,,,,,,,,,,,################################################                  ",
   "              ,,,,,,,,,,,,,,,,,,,,,,,,,,,,,,,,,,,,,,,,,,,,,,,,################################################                  ",
   "              ,,,,,,,,,,,,,,,,,,,,,,,,,,,,,,,,,,,,,,,,,,,,,,,,################################################                  ",
   "              ,,,,,,,,,,,,,,,,,,,,,,,,,,,,,,,,,,,,,,,,,,,,,,,,################################################                  ",
   "              ,,,,,,,,,,,,,,,,,,,,,,,,,,,,,,,,,,,,,,,,,,,,,,,,################################################                  ",
   "              ,,,,,,,,,,,,,,,,,,,,,,,,,,,,,,,,,,,,,,,,,,,,,,,,################################################                  ",
   "              ,,,,,,,,,,,,,,,,,,,,,,,,,,,,,,,,,,,,,,,,,,,,,,,,################################################                  ",
   "              ,,,,,,,,,,,,,,,,,,,,,,,,,,,,,,,,,,,,,,,,,,,,,,,,################################################                  ",
   "              ,,,,,,,,,,,,,,,,,,,,,,,,,,,,,,,,,,,,,,,,,,,,,,,,################################################                  ",
   "              ,,,,,,,,,,,,,,,,,,,,,,,,,,,,,,,,,,,,,,,,,,,,,,,,################################################                  ",
   "              ,,,,,,,,,,,,,,,,,,,,,,,,,,,,,,,,,,,,,,,,,,,,,,,,################################################                  ",
   "              ,,,,,,,,,,,,,,,,,,,,,,,,,,,,,,,,,,,,,,,,,,,,,,,,################################################                  ",
   "              ,,,,,,,,,,,,,,,,,,,,,,,,,,,,,,,,,,,,,,,,,,,,,,,,################################################                  ",
   "              ,,,,,,,,,,,,,,,,,,,,,,,,,,,,,,,,,,,,,,,,,,,,,,,,################################################                  ",
   "              ,,,,,,,,,,,,,,,,,,,,,,,,,,,,,,,,,,,,,,,,,,,,,,,,################################################                  ",
   "              ,,,,,,,,,,,,,,,,,,,,,,,,,,,,,,,,,,,,,,,,,,,,,,,,################################################                  ",
   "              ,,,,,,,,,,,,,,,,,,,,,,,,,,,,,,,,,,,,,,,,,,,,,,,,################################################                  ",
   "                ,,,,,,,,,,,,,,,,,,,,,,,,,,,,,,,,,,,,,,,,,,,,,,##############################################                    ",
   "                   ,,,,,,,,,,,,,,,,,,,,,,,,,,,,,,,,,,,,,,,,,,,###########################################                       ",
   "                       ,,,,,,,,,,,,,,,,,,,,,,,,,,,,,,,,,,,,,,,#######################################                           ",
   "                           ,,,,,,,,,,,,,,,,,,,,,,,,,,,,,,,,,,,###################################                               ",
   "                              ,,,,,,,,,,,,,,,,,,,,,,,,,,,,,,,,################################                                  ",
   "                                  ,,,,,,,,,,,,,,,,,,,,,,,,,,,,############################                                      ",
   "                                      ,,,,,,,,,,,,,,,,,,,,,,,,########################                                          ",
   "                                          ,,,,,,,,,,,,,,,,,,,,####################                                              ",
   "                                             ,,,,,,,,,,,,,,,,,#################                                                 ",
   "                                                 ,,,,,,,,,,,,,#############                                                     ",
   "                                                     ,,,,,,,,,#########                                                         ",
   "                                                        ,,,,,,######                                                            ",
   "                                                            ,,##                                                                ",
   "                                                                                                                                ",
   "                                                                                                                                ",
   "                                                                                                                                ",
   "                                                                                                                                ",
   "                                                                                                                                ",
   "                                                                                                                                ",
   "                                                                                                                                ",
   "                                                                                                                                ",
   "                                                                                                                                ",
   "                                                                                                                                ",
   "                                                                                                                                ",
   "                                                                                                                                ",
   "                                                                                                                                ",
   "                                                                                                                                ",
   "                                                                                                                                ",
   "                                                                                                                                ",
   "                                                                                                                                ",
   "                                                                                                                                ",
   "                                                                                                                                "};

