/* XPM */
static char * Untitled_xpm[] = {
   "128 128 40 1",
   " 	c None",
   ".	c #000000",
   "+	c #2C2C2C",
   "@	c #8f8f8f",
   "#	c #121212",
   "$	c #030303",
   "%	c #515151",
   "&	c #7A7A7A",
   "*	c #A2A2A2",
   "=	c #C4C4C4",
   "-	c #1D1DFE",
   ";	c #1E1EFF",
   ">	c #0C0C6D",
   ",	c #1717CA",
   "'	c #1D1DFB",
   ")	c #0F0F86",
   "!	c #1B1BEA",
   "~	c #D2D2D2",
   "{	c #B6B6B6",
   "]	c #8C8C8C",
   "^	c #666666",
   "/	c #D5D5D5",
   "(	c #D4D4D4",
   "_	c #005A11",
   ":	c #00BC23",
   "<	c #007B17",
   "[	c #00BD24",
   "}	c #001003",
   "|	c #00A01E",
   "1	c #006C14",
   "2	c #00BA23",
   "3	c #5B5B5B",
   "4	c #00500F",
   "5	c #00AD21",
   "6	c #006312",
   "7	c #00951C",
   "8	c #008F1B",
   "9	c #00470D",
   "0	c #002707",
   "a	c #000200",
   "                                                                                                                                ",
   "                                                                                                                                ",
   "                                                                                                                                ",
   "                                                                                                                                ",
   "                                                                                                                                ",
   "                                                                                                                                ",
   "                                                                                                                                ",
   "                                                                                                                                ",
   "                                                                                                                                ",
   "                                                                                                                                ",
   "                                                                                                                                ",
   "                                                                                                                                ",
   "                                                                                                                                ",
   "                                                                                                                                ",
   "                                                                                                                                ",
   "                                                                                                                                ",
   "                                                                                                                                ",
   "                                                                                                                                ",
   "                                                                                                                                ",
   "                                                                                                                                ",
   "                                                                                                                                ",
   "                                                                                                                                ",
   "                                                                                                                                ",
   "                                                                                                                                ",
   "                                       ........                                                                                 ",
   "                                  ..................                                                                            ",
   "                                ......................                                                                          ",
   "                             ............................                                                                       ",
   "                            ..............................                                                                      ",
   "                          ..................................                                                                    ",
   "                         ....................................                                                                   ",
   "                       ........................................                                                                 ",
   "                      ..........................................                                                                ",
   "                     ............................................                                                               ",
   "                    ..............................................                                                              ",
   "                    ..............................................                                                              ",
   "                   ................................................                                                             ",
   "                  ..................................................                                                            ",
   "                  ..................................................                                                            ",
   "                 ....................................................                                                           ",
   "                ......................................................                                                          ",
   "                ......................................................                                                          ",
   "                ......................................................                                                          ",
   "               ........................................................                                                         ",
   "               ........................................................                                                         ",
   "              ..........................................................                                                        ",
   "              ..........................................................                                                        ",
   "              ..........................................................                                                        ",
   "              ..........................................................                                                        ",
   "              ..........................................................                                                        ",
   "             ............................................................                                                       ",
   "             ...........................................................+@@@@@@                                                 ",
   "             ...........................................................#@@@@@@@@@@@@@@@@@@@@                                   ",
   "             ...........................................................$@@@@@@@@@@@@@@@@@@@@@@@@@@@@@@@@@@@                    ",
   "             ...........................................................$@@@@@@@@@@@@@@@@@@@@@@@@@@@@@@@@@@@@@@@@@@@@@@@@@@     ",
   "             ...........................................................#@@@@@@@@@@@@@@@@@@@@@@@@@@@@@@@@@@@@@@@@@@@@@@@@@@@@@@@",
   "             ...........................................................+@@@@@@@@@@@@@@@@@@@@@@@@@@@@@@@@@@@@@@@@@@@@@@@@@@@@@@@",
   "             ...........................................................%@@@@@@@@@@@@@@@@@@@@@@@@@@@@@@@@@@@@@@@@@@@@@@@@@@@@@@@",
   "              ..........................................................&@@@@@@@@@@@@@@@@@@@@@@@@@@@@@@@@@@@@@@@@@@@@@@@@@@@@@@@",
   "              ..........................................................*@@@@@@@@@@@@@@@@@@@@@@@@@@@@@@@@@@@@@@@@@@@@@@@@@@@@@@@",
   "              ..........................................................=@@@@@@@@@@@@@@@@@@@@@@@@@@@@@@@@@@@@@@@@@@@@@@@@@@@@@@@",
   "              ..........................................................-;;;;;;;@@@@@@@@@@@@@@@@@@@@@@@@@@@@@@@@@@@@@@@@@@@@@@@@",
   "              .........................................................>;;;;;;;;;;;;;;;;;;;;;;@@@@@@@@@@@@@@@@@@@@@@@@@@@@@@@@@@",
   "               ........................................................,;;;;;;;;;;;;;;;;;;;;;;;;;;;;;;;;;;;;;@@@@@@@@@@@@@@@@@@@",
   "               ........................................................';;;;;;;;;;;;;;;;;;;;;;;;;;;;;;;;;;;;;;;;;;;;;;;;;;;;@@@@",
   "                ......................................................);;;;;;;;;;;;;;;;;;;;;;;;;;;;;;;;;;;;;;;;;;;;;;;;;;;;;;;;;",
   "                ......................................................!;;;;;;;;;;;;;;;;;;;;;;;;;;;;;;;;;;;;;;;;;;;;;;;;;;;;;;;;;",
   "                .....................................................>;;;;;;;;;;;;;;;;;;;;;;;;;;;;;;;;;;;;;;;;;;;;;;;;;;;;;;;;;;",
   "                 ....................................................!;;;;;;;;;;;;;;;;;;;;;;;;;;;;;;;;;;;;;;;;;;;;;;;;;;;;;;;;;;",
   "                  ..................................................&@;;;;;;;;;;;;;;;;;;;;;;;;;;;;;;;;;;;;;;;;;;;;;;;;;;;;;;;;;;",
   "                  .................................................#~@@@;;;;;;;;;;;;;;;;;;;;;;;;;;;;;;;;;;;;;;;;;;;;;;;;;;;;;;;;",
   "                   ................................................{@@@@@;;;;;;;;;;;;;;;;;;;;;;;;;;;;;;;;;;;;;;;;;;;;;;;;;;;;;;;",
   "                    ..............................................]@@@@@@@;;;;;;;;;;;;;;;;;;;;;;;;;;;;;;;;;;;;;;;;;;;;;;;;;;;;;;",
   "                    .............................................^@@@@@@@@@;;;;;;;;;;;;;;;;;;;;;;;;;;;;;;;;;;;;;;;;;;;;;;;;;;;;;",
   "                     ...........................................%/@@@@@@@@@@@;;;;;;;;;;;;;;;;;;;;;;;;;;;;;;;;;;;;;;;;;;;;;;;;;;;",
   "                      %........................................%(@@@@@@@@@@@@@;;;;;;;;;;;;;;;;;;;;;;;;;;;;;;;;;;;;;;;;;;;;;;;;;;",
   "                     @/^......................................_:@@@@@@@@@@@@@@@;;;;;;;;;;;;;;;;;;;;;;;;;;;;;;;;;;;;;;;;;;;;;;;;;",
   "                     @@@]....................................<[[[@@@@@@@@@@@@@@@;;;;;;;;;;;;;;;;;;;;;;;;;;;;;;;;;;;;;;;;;;;;;;;;",
   "                    @@@@@{#................................}|[[[[[@@@@@@@@@@@@@@@@;;;;;;;;;;;;;;;;;;;;;;;;;;;;;;;;;;;;;;;;;;;;;;",
   "                   @@@@@@@~&..............................12[[[[[[[[@@@@@@@@@@@@@@@;;;;;;;;;;;;;;;;;;;;;;;;;;;;;;;;;;;;;;;;;;;;;",
   "                   @@@@@@@@@=3..........................45[[[[[[[[[[[@@@@@@@@@@@@@@@;;;;;;;;;;;;;;;;;;;;;;;;;;;;;;;;;;;;;;;;;;;;",
   "                  @@@@@@@@@@@@56......................65[[[[[[[[[[[[[[@@@@@@@@@@@@@@@;;;;;;;;;;;;;;;;;;;;;;;;;;;;;;;;;;;;;;;;;;;",
   "                 @@@@@@@@@@@@[[[274................472[[[[[[[[[[[[[[[[[@@@@@@@@@@@@@@@;;;;;;;;;;;;;;;;;;;;;;;;;;;;;;;;;;;;;;;;;;",
   "                 @@@@@@@@@@@[[[[[[[:58190}aa}09185:[[[[[[[[[[[[[[[[[[[[[[@@@@@@@@@@@@@@@;;;;;;;;;;;;;;;;;;;;;;;;;;;;;;;;;;;;;;;;",
   "                @@@@@@@@@@@@[[[[[[[[[[[[[[[[[[[[[[[[[[[[[[[[[[[[[[[[[[[[[[@@@@@@@@@@@@@@@;;;;;;;;;;;;;;;;;;;;;;;;;;;;;;;;;;;;;;;",
   "               @@@@@@@@@@@@[[[[[[[[[[[[[[[[[[[[[[[[[[[[[[[[[[[[[[[[[[[[[[[[@@@@@@@@@@@@@@@;;;;;;;;;;;;;;;;;;;;;;;;;;;;;;;;;;;;;;",
   "               @@@@@@@@@@@[[[[[[[[[[[[[[[[[[[[[[[[[[[[[[[[[[[[[[[[[[[[[[[[[[@@@@@@@@@@@@@@@;;;;;;;;;;;;;;;;;;;;;;;;;;;;;;;;;;;;;",
   "              @@@@@@@@@@@@[[[[[[[[[[[[[[[[[[[[[[[[[[[[[[[[[[[[[[[[[[[[[[[[[[[[@@@@@@@@@@@@@@@;;;;;;;;;;;;;;;;;;;;;;;;;;;;;;;;;;;",
   "             @@@@@@@@@@@@[[[[[[[[[[[[[[[[[[[[[[[[[[[[[[[[[[[[[[[[[[[[[[[[[[[[[[@@@@@@@@@@@@@@@;;;;;;;;;;;;;;;;;;;;;;;;;;;;;;;;;;",
   "             @@@@@@@@@@@[[[[[[[[[[[[[[[[[[[[[[[[[[[[[[[[[[[[[[[[[[[[[[[[[[[[[[[[@@@@@@@@@@@@@@@;;;;;;;;;;;;;;;;;;;;;;;;;;;;;;;;;",
   "            @@@@@@@@@@@@[[[[[[[[[[[[[[[[[[[[[[[[[[[[[[[[[[[[[[[[[[[[[[[[[[[[[[[[[@@@@@@@@@@@@@@@;;;;;;;;;;;;;;;;;;;;;;;;;;;;;;;;",
   "           @@@@@@@@@@@@[[[[[[[[[[[[[[[[[[[[[[[[[[[[[[[[[[[[[[[[[[[[[[[[[[[[[[[[[[[@@@@@@@@@@@@@@@@;;;;;;;;;;;;;;;;;;;;;;;;;;;;;;",
   "           @@@@@@@@@@@[[[[[[[[[[[[[[[[[[[[[[[[[[[[[[[[[[[[[[[[[[[[[[[[[[[[[[[[[[[[[[@@@@@@@@@@@@@@@;;;;;;;;;;;;;;;;;;;;;;;;;;;;;",
   "          @@@@@@@@@@@@[[[[[[[[[[[[[[[[[[[[[[[[[[[[[[[[[[[[[[[[[[[[[[[[[[[[[[[[[[[[[[[@@@@@@@@@@@@@@@;;;;;;;;;;;;;;;;;;;;;;;;;;;;",
   "         @@@@@@@@@@@@[[[[[[[[[[[[[[[[[[[[[[[[[[[[[[[[[[[[[[[[[[[[[[[[[[[[[[[[[[[[[[[[[@@@@@@@@@@@@@@@;;;;;;;;;;;;;;;;;;;;;;;;;;;",
   "         @@@@@@@@@@@[[[[[[[[[[[[[[[[[[[[[[[[[[[[[[[[[[[[[[[[[[[[[[[[[[[[[[[[[[[[[[[[[[[@@@@@@@@@@@@@@@@;;;;;;;;;;;;;;;;;;;;;;;;;",
   "        @@@@@@@@@@@@[[[[[[[[[[[[[[[[[[[[[[[[[[[[[[[[[[[[[[[[[[[[[[[[[[[[[[[[[[[[[[[[[[[[[@@@@@@@@@@@@@@@;;;;;;;;;;;;;;;;;;;;;;;;",
   "       @@@@@@@@@@@@[[[[[[[[[[[[[[[[[[[[[[[[[[[[[[[[[[[[[[[[[[[[[[[[[[[[[[[[[[[[[[[[[[[[[[[@@@@@@@@@@@@@@@;;;;;;;;;;;;;;;;;;;;;;;",
   "       @@@@@@@@@@@[[[[[[[[[[[[[[[[[[[[[[[[[[[[[[[[[[[[[[[[[[[[[[[[[[[[[[[[[[[[[[[[[[[[[[[[[@@@@@@@@@@@@@@@;;;;;;;;;;;;;;;;;;;;;;",
   "      @@@@@@@@@@@@[[[[[[[[[[[[[[[[[[[[[[[[[[[[[[[[[[[[[[[[[[[[[[[[[[[[[[[[[[[[[[[[[[[[[[[[[[@@@@@@@@@@@@@@@;;;;;;;;;;;;;;;;;;;;;",
   "     @@@@@@@@@@@@[[[[[[[[[[[[[[[[[[[[[[[[[[[[[[[[[[[[[[[[[[[[[[[[[[[[[[[[[[[[[[[[[[[[[[[[[[[[[@@@@@@@@@@@@@@@;;;;;;;;;;;;;;;;;;;",
   "     @@@@@@@@@@@[[[[[[[[[[[[[[[[[[[[[[[[[[[[[[[[[[[[[[[[[[[[[[[[[[[[[[[[[[[[[[[[[[[[[[[[[[[[[[[@@@@@@@@@@@@@@@;;;;;;;;;;;;;;;;;;",
   "    @@@@@@@@@@@@[[[[[[[[[[[[[[[[[[[[[[[[[[[[[[[[[[[[[[[[[[[[[[[[[[[[[[[[[[[[[[[[[[[[[[[[[[[[[[[[@@@@@@@@@@@@@@@;;;;;;;;;;;;;;;;;",
   "   @@@@@@@@@@@@[[[[[[[[[[[[[[[[[[[[[[[[[[[[[[[[[[[[[[[[[[[[[[[[[[[[[[[[[[[[[[[[[[[[[[[[[[[[[[[[[[@@@@@@@@@@@@@@@;;;;;;;;;;;;;;;;",
   "   @@@@@@@@@@@[[[[[[[[[[[[[[[[[[[[[[[[[[[[[[[[[[[[[[[[[[[[[[[[[[[[[[[[[[[[[[[[[[[[[[[[[[[[[[[[[[[[@@@@@@@@@@@@@@@@;;;;;;;;;;;;;;",
   "  @@@@@@@@@@@@[[[[[[[[[[[[[[[[[[[[[[[[[[[[[[[[[[[[[[[[[[[[[[[[[[[[[[[[[[[[[[[[[[[[[[[[[[[[[[[[[[[[[[@@@@@@@@@@@@@@@;;;;;;;;;;;;;",
   " @@@@@@@@@@@@[[[[[[[[[[[[[[[[[[[[[[[[[[[[[[[[[[[[[[[[[[[[[[[[[[[[[[[[[[[[[[[[[[[[[[[[[[[[[[[[[[[[[[[[@@@@@@@@@@@@@@@;;;;;;;;;;;;",
   " @@@@@@@@@@@[[[[[[[[[[[[[[[[[[[[[[[[[[[[[[[[[[[[[[[[[[[[[[[[[[[[[[[[[[[[[[[[[[[[[[[[[[[[[[[[[[[[[[[[[[@@@@@@@@@@@@@@@;;;;;;;;;;;",
   "@@@@@@@@@@@@[[[[[[[[[[[[[[[[[[[[[[[[[[[[[[[[[[[[[[[[[[[[[[[[[[[[[[[[[[[[[[[[[[[[[[[[[[[[[[[[[[[[[[[[[[[@@@@@@@@@@@@@@@@;;;;;;;;;",
   "@@@@@@@@@@@[[[[[[[[[[[[[[[[[[[[[[[[[[[[[[[[[[[[[[[[[[[[[[[[[[[[[[[[[[[[[[[[[[[[[[[[[[[[[[[[[[[[[[[[[[[[[[@@@@@@@@@@@@@@@;;;;;;;;",
   "@@@@@@@@@@[[[[[[[[[[[[[[[[[[[[[[[[[[[[[[[[[[[[[[[[[[[[[[[[[[[[[[[[[[[[[[[[[[[[[[[[[[[[[[[[[[[[[[[[[[[[[[[[@@@@@@@@@@@@@@@;;;;;;;",
   "@@@@@@@@@@[[[[[[[[[[[[[[[[[[[[[[[[[[[[[[[[[[[[[[[[[[[[[[[[[[[[[[[[[[[[[[[[[[[[[[[[[[[[[[[[[[[[[[[[[[[[[[[[[@@@@@@@@@@@@@@@;;;;;;",
   "@@@@@@@@@[[[[[[[[[[[[[[[[[[[[[[[[[[[[[[[[[[[[[[[[[[[[[[[[[[[[[[[[[[[[[[[[[[[[[[[[[[[[[[[[[[[[[[[[[[[[[[[[[[[@@@@@@@@@@@@@@@;;;;;",
   "@@@@@@@@[[[[[[[[[[[[[[[[[[[[[[[[[[[[[[[[[[[[[[[[[[[[[[[[[[[[[[[[[[[[[[[[[[[[[[[[[[[[[[[[[[[[[[[[[[[[[[[[[[[[[[@@@@@@@@@@@@@@@;;;",
   "@@@@@@@@[[[[[[[[[[[[[[[[[[[[[[[[[[[[[[[[[[[[[[[[[[[[[[[[[[[[[[[[[[[[[[[[[[[[[[[[[[[[[[[[[[[[[[[[[[[[[[[[[[[[[[[@@@@@@@@@@@@@@@;;",
   "@@@@@@@[[[[[[[[[[[[[[[[[[[[[[[[[[[[[[[[[[[[[[[[[[[[[[[[[[[[[[[[[[[[[[[[[[[[[[[[[[[[[[[[[[[[[[[[[[[[[[[[[[[[[[[[[@@@@@@@@@@@@@@@;",
   "@@@@@@[[[[[[[[[[[[[[[[[[[[[[[[[[[[[[[[[[[[[[[[[[[[[[[[[[[[[[[[[[[[[[[[[[[[[[[[[[[[[[[[[[[[[[[[[[[[[[[[[[[[[[[[[[[@@@@@@@@@@@@@@@",
   "@@@@@@[[[[[[[[[[[[[[[[[[[[[[[[[[[[[[[[[[[[[[[[[[[[[[[[[[[[[[[[[[[[[[[[[[[[[[[[[[[[[[[[[[[[[[[[[[[[[[[[[[[[[[[[[[[[[@@@@@@@@@@@@@",
   "@@@@@[[[[[[[[[[[[[[[[[[[[[[[[[[[[[[[[[[[[[[[[[[[[[[[[[[[[[[[[[[[[[[[[[[[[[[[[[[[[[[[[[[[[[[[[[[[[[[[[[[[[[[[[[[[[[[[@@@@@@@@@@@@",
   "@@@@[[[[[[[[[[[[[[[[[[[[[[[[[[[[[[[[[[[[[[[[[[[[[[[[[[[[[[[[[[[[[[[[[[[[[[[[[[[[[[[[[[[[[[[[[[[[[[[[[[[[[[[[[[[[[[[[[@@@@@@@@@@@",
   "@@@@[[[[[[[[[[[[[[[[[[[[[[[[[[[[[[[[[[[[[[[[[[[[[[[[[[[[[[[[[[[[[[[[[[[[[[[[[[[[[[[[[[[[[[[[[[[[[[[[[[[[[[[[[[[[[[[[[[@@@@@@@@@@",
   "@@@[[[[[[[[[[[[[[[[[[[[[[[[[[[[[[[[[[[[[[[[[[[[[[[[[[[[[[[[[[[[[[[[[[[[[[[[[[[[[[[[[[[[[[[[[[[[[[[[[[[[[[[[[[[[[[[[[[[[@@@@@@@@@",
   "@@[[[[[[[[[[[[[[[[[[[[[[[[[[[[[[[[[[[[[[[[[[[[[[[[[[[[[[[[[[[[[[[[[[[[[[[[[[[[[[[[[[[[[[[[[[[[[[[[[[[[[[[[[[[[[[[[[[[[[[[@@@@@@@",
   "@@[[[[[[[[[[[[[[[[[[[[[[[[[[[[[[[[[[[[[[[[[[[[[[[[[[[[[[[[[[[[[[[[[[[[[[[[[[[[[[[[[[[[[[[[[[[[[[[[[[[[[[[[[[[[[[[[[[[[[[[[@@@@@@",
   "@[[[[[[[[[[[[[[[[[[[[[[[[[[[[[[[[[[[[[[[[[[[[[[[[[[[[[[[[[[[[[[[[[[[[[[[[[[[[[[[[[[[[[[[[[[[[[[[[[[[[[[[[[[[[[[[[[[[[[[[[[[@@@@@",
   "[[[[[[[[[[[[[[[[[[[[[[[[[[[[[[[[[[[[[[[[[[[[[[[[[[[[[[[[[[[[[[[[[[[[[[[[[[[[[[[[[[[[[[[[[[[[[[[[[[[[[[[[[[[[[[[[[[[[[[[[[[[[@@@@",
   "[[[[[[[[[[[[[[[[[[[[[[[[[[[[[[[[[[[[[[[[[[[[[[[[[[[[[[[[[[[[[[[[[[[[[[[[[[[[[[[[[[[[[[[[[[[[[[[[[[[[[[[[[[[[[[[[[[[[[[[[[[[[[[@@",
   "[[[[[[[[[[[[[[[[[[[[[[[[[[[[[[[[[[[[[[[[[[[[[[[[[[[[[[[[[[[[[[[[[[[[[[[[[[[[[[[[[[[[[[[[[[[[[[[[[[[[[[[[[[[[[[[[[[[[[[[[[[[[[[[@"};
