/* XPM */
static char * Untitled_xpm[] = {
   "128 128 7 1",
   " 	c None",
   ".	c #000000",
   "+	c #1E1EFF",
   "@	c #FE0000",
   "#	c #FF0000",
   "$	c #9D9D9D",
   "%	c #D6D6D6",
   " ++++++++++++++++++++++++                                                                                                       ",
   " ++++++++++++++++++++++++                                                                                                       ",
   " ++++++++++++++++++++++++              .                                                                                        ",
   " ++++++++++++++++++++++++             ..                                                                                        ",
   " ++++++++++++++++++++++++            ...                                                                                        ",
   " ++++++++++++++++++++++++           ....                                                                                        ",
   " ++++++++++++++++++++++++          .....                                                                                        ",
   " ++++++++++++++++++++++++          .....                                                                                        ",
   " ++++++++++++++++++++++++         ......                                                                                        ",
   " ++++++++++++++++++++++++        .......                                                                                        ",
   " ++++++++++++++++++++++++       ........                                                                                        ",
   " ++++++++++++++++++++++++      .........                                                                                        ",
   " ++++++++++++++++++++++++      .........                                                                                        ",
   " ++++++++++++++++++++++++     ..........                                                                                        ",
   " ++++++++++++++++++++++++    ...........                                                                                        ",
   " ++++++++++++++++++++++++   ............                                                                                        ",
   " ++++++++++++++++++++++++  .............             ....                                                                       ",
   " ++++++++++++++++++++++++ ...............    ......................                                                             ",
   " ++++++...........+++++++ ..............................................                                                        ",
   " ++++...............+++++.................................................                                                      ",
   " ++...................++....................................................                                                    ",
   "#..............................................................................#################################################",
   ".................................................................................###############################################",
   "..........$$$$$...................................................................##############################################",
   "........$$$$$$$$$...................................................................############################################",
   "......$$$$$$$$$$$$$...................................................................##########################################",
   "....$$$$$$$$$$$$$$$....................................................................#########################################",
   "...$$$$$$$$$$$$$$$.......................................................................#######################################",
   "..$$$$$$$$$$$$$$$.........................................................................######################################",
   "..$$$$$$$$$$$$$$$..........................................................................#####################################",
   ".$$$$$$$$$$$$$$$...........................................................................#####################################",
   "$$$$$$$$$$$$$$$.............................................................................####################################",
   "$$$$$$$$$$$$$$................................................................................##################################",
   "$$$$$$$$$$$$$$.................................................................................#################################",
   "$$$$$$$$$$$$$$$.................................................................................################################",
   "$$$$$$$$$$$$$$$$.................................................................................###############################",
   "$$$$$$$$$$$$$$$$$................................................................................###############################",
   "$$$$$$$$$$$$$$$$$$$...............................................................................##############################",
   "$$$$$$$$$$$$$$$$$$$$..............................................................................##############################",
   "$$$$$$$$$$$$$$$$$$$$$..............................................................................#############################",
   "$$$$$$$$$$$$$$$$$$$$$$..............................................................................############################",
   ".$$$$$$$$$$$$$$$$$$$$$$$.............................................................................###########################",
   "..$$$$$$$$$$$$$$$$$$$$$..............................######..###.....................................###########################",
   "..$$$$$$$$$$$$$$$$$$$$$......................#######################..................................##########################",
   "...$$$$$$$$$$$$$$$$$$$......................##########################................................##########################",
   "....$$$$$$$$$$$$$$$$$.......#.................#############################............................#########################",
   "......$$$$$$$$$$$$$.........##...............#@##############################..........................#########################",
   "........$$$$$$$$$..........####..............#################################..........................########################",
   "..........$$$$$...........######.............####################################........................#######################",
   ".........................#########............####################################.......................#######################",
   "#.......................###########...........#####################################......................#######################",
   " ++...................+++           ..........                                      ......................                      ",
   " ++++...............+++++            .........                                        ....................                      ",
   " ++++++...........+++++++              .......                                         ...................                      ",
   " ++++++++++++++++++++++++               .....                                           ..................                      ",
   " ++++++++++++++++++++++++                ....                                           ..................                      ",
   " ++++++++++++++++++++++++                  ..                                             .................                     ",
   " ++++++++++++++++++++++++                   .                                              .................                    ",
   " ++++++++++++++++++++++++                                                                  .................                    ",
   " ++++++++++++++++++++++++                                                                   ................                    ",
   " ++++++++++++++++++++++++                                                                    ...............                    ",
   " ++++++++++++++++++++++++                                                                     ..............                    ",
   " ++++++++++++++++++++++++                                                                      .............                    ",
   " ++++++++++++++++++++++++                                                                      .............                    ",
   " ++++++++++++++++++++++++                                                                      ..............                   ",
   " ++++++++++++++++++++++++                                                                       .............                   ",
   " ++++++++++++++++++++++++                                                                       .............                   ",
   " ++++++++++++++++++++++++                                                                        ............                   ",
   " ++++++++++++++++++++++++                                                                        ............                   ",
   " ++++++++++++++++++++++++                                                                        ...........                    ",
   " ++++++++++++++++++++++++                                                                        ...........                    ",
   " ++++++++++++++++++++++++                                                                         ..........                    ",
   " ++++++++++++++++++++++++                                                                          .........                    ",
   " ++++++++++++++++++++++++                                                                          ..........                   ",
   " ++++++++++++++++++++++++                                                                          .........                    ",
   " ++++++++++++++++++++++++                                                                          .........                    ",
   " ++++++++++++++++++++++++                                                                          .........                    ",
   " ++++++++++++++++++++++++                                                                          .........                    ",
   " ++++++++++++++++++++++++                                                                          ........                     ",
   " ++++++++++++++++++++++++                                                                          ........                     ",
   " ++++++++++++++++++++++++                                                                           .......                     ",
   " ++++++++++++++++++++++++                                                                           .......                     ",
   " ++++++++++++++++++++++++                                                                           .......                     ",
   " ++++++++++++++++++++++++                                                                           ......                      ",
   " ++++++++++++++++++++++++                                                                           ......                      ",
   " ++++++++++++++++++++++++                                                                           ......                      ",
   " ++++++++++++++++++++++++                                                                 ...............                       ",
   " ++++++++++++++++++++++++                                                               .................                       ",
   " ++++++++++++++++++++++++                                                             ...................                       ",
   " ++++++++++++++++++++++++                                                           .......................                     ",
   " ++++++++++++++++++++++++                                                          .........................                    ",
   " ++++++++++++++++++++++++                                                         ...........$$$$$...........                   ",
   " ++++++++++++++++++++++++                                                        ..........$$$$$$$$$..........                  ",
   " ++++++++++++++++++++++++                                                       .........$$$$$$$$$$............                 ",
   " ++++++++++++++++++++++++                                                       .......$$$$$$$$$$$$...$$.......                 ",
   " ++++++++++++++++++++++++                                                      .......$$$$$$$$$$$$$..$$$$.......                ",
   " ++++++++++++++++++++++++                                                     .......$$$$$$$$$$$$$..$$$$$$.......               ",
   " ++++++++++++++++++++++++                                                     .......$$$$$$$$$$$$$.$$$$$$$.......               ",
   " ++++++++++++++++++++++++                                                     ......$$$$$$$$$$$$$$.$$$$$$$$......               ",
   " ++++++++++++++++++++++++                                                    ......$$$$$$$$$$$$$$$.$$$$$$$$$......              ",
   " ++++++++++++++++++++++++                                                    ......$$$$$$$$$$$$$$$$$$$$$$$$$......              ",
   " ++++++++++++++++++++++++                                                    ......$$$$$$$$$$$$$$$$$$$$$$$$$......              ",
   " ++++++++++++++++++++++++                                                    .....$$$$$$$$$$$$$$$$$$$$$$$$$$$.....              ",
   " ++++++++++++++++++++++++                                                    .....$$$$$$$$$$$$$$$$$$$$$$$$$$$.....              ",
   " ++++++++++++++++++++++++                                                    .....$$$$$$$$$$$$$$$$$$$$$$$$$$$.....              ",
   " ++++++++++++++++++++++++                                                    .....$$$$$$$$$$$$$$$$$$$$$$$$$$$.....              ",
   " ++++++++++++++++++++++++                                                    ......$$$$$$$$$$$$$$$$$$$$$$$$$......              ",
   " ++++++++++++++++++++++++                                                    ......$$$$$$$$$$$$$$$$$$$$$$$$$......              ",
   " ++++++++++++++++++++++++                                                    ......$$$$$$$$$$$$$$$$$$$$$$$$$......              ",
   " ++++++++++++++++++++++++                                                     ......$$$$$$$$$$$$$$$$$$$$$$$......               ",
   " ++++++++++++++++++++++++                                                     .......$$$$$$$$$$$$$$$$$$$$$.......               ",
   " ++++++++++++++++++++++++                                                     .......$$$$$$$$$$$$$$$$$$$$$.......               ",
   " ++++++++++++++++++++++++                                                      .......$$$$$$$$$$$$$$$$$$$.......                ",
   " ++++++++++++++++++++++++                                                       .......$$$$$$$$$$$$$$$$$.......                 ",
   " ++++++++++++++++++++++++                                                       .........$$$$$$$$$$$$$.........                 ",
   " ++++++++++++++++++++++++                                                        ..........$$$$$$$$$..........                  ",
   " ++++++++++++++++++++++++                                                         ...........$$$$$...........                   ",
   " ++++++++++++++++++++++++                                                          .........................                    ",
   " ++++++++++++++++++++++++                                                           .......................                     ",
   " ++++++++++++++++++++++++                                                             ...................                       ",
   " ++++++++++++++++++++++++                                                               ...............                         ",
   " ++++++++++++++++++++++++                                                                 ...........                           ",
   " ++++++++++++++++++++++++                                                                                                       ",
   " ++++++++++++++++++++++++                                                                                                       ",
   " ++++++++++++++++++++++++                                                                                                       ",
   " ++++++++++++++++++++++++                                                                                                       ",
   " ++++++++++++++++++++++++                                                                                                       ",
   " ++++++++++++++++++++++++                                                                                                       "};
